<svg xmlns="http://www.w3.org/2000/svg" viewBox="0 0 239.51 116.24"><defs><style>.cls-1{fill:#fff;}.cls-2{fill:#666;}.cls-3{fill:#003c78;}.cls-3,.cls-4,.cls-5,.cls-6{fill-rule:evenodd;}.cls-4{fill:#008255;}.cls-5{fill:#ed1c24;}.cls-6{fill:#0080c3;}</style></defs><title>logo</title><g id="Layer_2" data-name="Layer 2"><g id="Layer_1-2" data-name="Layer 1"><rect class="cls-1" width="118.09" height="116.24"/><rect class="cls-1" x="121.42" width="118.09" height="116.24"/><path class="cls-2" d="M136.41,36.75h-2.58v3.44h-1.11V31.76h3.69a2.31,2.31,0,0,1,2.58,2.5A2.3,2.3,0,0,1,136.41,36.75Zm-.38-4h-2.2V35.8H136c1.26,0,1.84-.54,1.84-1.54S137.29,32.71,136,32.71Z"/><path class="cls-2" d="M145.11,40.39c-2.69,0-4-2.12-4-4.41s1.35-4.42,4-4.42,4,2.12,4,4.42S147.78,40.39,145.11,40.39Zm0-7.89c-2.07,0-2.91,1.78-2.91,3.48s.84,3.47,2.91,3.47S148,37.67,148,36,147.16,32.5,145.11,32.5Z"/><path class="cls-2" d="M151.69,40.19V31.76h1.12v7.48h4.46v.95Z"/><path class="cls-2" d="M162.43,40.39c-1.89,0-3.48-.92-3.48-3H160c0,1.41,1.18,2,2.45,2,1,0,2.14-.33,2.14-1.54s-1.34-1.36-2.69-1.65-2.7-.69-2.7-2.23c0-1.71,1.52-2.47,3.06-2.47,1.72,0,3,.82,3.11,2.67h-1.07a1.85,1.85,0,0,0-2.1-1.73c-.94,0-1.88.35-1.88,1.45s1.34,1.19,2.7,1.49,2.69.78,2.69,2.43C165.72,39.67,164,40.39,162.43,40.39Z"/><path class="cls-2" d="M173.83,40.19l-3-4.26-1.41,1.31v2.95h-1.12V31.76h1.12V36l4.27-4.21h1.46l-3.56,3.4,3.7,5Z"/><path class="cls-2" d="M182.9,40.19,182,37.66h-3.57l-.94,2.53h-1.16l3.3-8.43h1.23l3.3,8.43Zm-2.68-7.41h0l-1.43,3.93h2.86Z"/><path class="cls-2" d="M136.28,60.63c-2.69,0-4-2.13-4-4.42s1.35-4.42,4-4.42,4,2.13,4,4.42S139,60.63,136.28,60.63Zm0-7.89c-2.06,0-2.92,1.77-2.92,3.47s.86,3.47,2.92,3.47,2.91-1.77,2.91-3.47S138.33,52.74,136.28,52.74Z"/><path class="cls-2" d="M148.43,60.42c-.31-.34-.14-1.25-.3-2.08s-.32-1.51-1.41-1.51H144v3.59h-1.12V52h4c1.58,0,2.56.86,2.56,2.2a2,2,0,0,1-1.47,2.14v0c1,.19,1.19.91,1.27,1.74a4.21,4.21,0,0,0,.49,2.32Zm-1.66-7.48H144v2.94h2.34c1.05,0,1.94-.28,1.94-1.5A1.32,1.32,0,0,0,146.77,52.94Z"/><path class="cls-2" d="M158.72,60.42l-.28-1.05a3.33,3.33,0,0,1-2.72,1.26,4,4,0,0,1-4-4.25c0-2.46,1.35-4.59,4-4.59,1.84,0,3.31.84,3.63,2.81h-1.12a2.29,2.29,0,0,0-2.51-1.86c-2,0-2.88,1.77-2.88,3.57s1,3.37,2.88,3.37a2.56,2.56,0,0,0,2.72-2.75h-2.7V56h3.69v4.44Z"/><path class="cls-2" d="M167.84,60.42l-.91-2.54h-3.56l-1,2.54h-1.16L164.55,52h1.24l3.29,8.42ZM165.17,53h0l-1.43,3.93h2.86Z"/><path class="cls-2" d="M176.57,60.42l-4.4-6.76h0v6.76h-1.07V52h1.19l4.44,6.83h0V52h1.06v8.42Z"/><path class="cls-2" d="M180.84,60.42V52H182v8.42Z"/><path class="cls-2" d="M184.37,60.42v-.94l5.24-6.54h-4.84V52h6.16v.94l-5.22,6.54h5.37v.94Z"/><path class="cls-2" d="M199,60.42l-.92-2.54h-3.56l-.95,2.54h-1.16L195.71,52H197l3.28,8.42ZM196.33,53h0l-1.43,3.93h2.86Z"/><path class="cls-2" d="M205.74,60.63c-2.62,0-3.9-1.94-3.9-4.39s1.39-4.45,4-4.45a3.23,3.23,0,0,1,3.47,2.75h-1.12a2.23,2.23,0,0,0-2.36-1.8c-2,0-2.86,1.65-2.86,3.41,0,1.92.85,3.53,2.87,3.53a2.39,2.39,0,0,0,2.44-2.43h1.12A3.44,3.44,0,0,1,205.74,60.63Z"/><path class="cls-2" d="M213.75,60.63a2.22,2.22,0,0,1-2.45-2.46v-.52h1.12V58c0,1,.25,1.67,1.35,1.67s1.35-.59,1.35-1.52V52h1.12v6.32A2.19,2.19,0,0,1,213.75,60.63Z"/><path class="cls-2" d="M224.84,60.42l-.91-2.54h-3.57l-1,2.54h-1.15L221.55,52h1.24l3.3,8.42ZM222.17,53h0l-1.43,3.93h2.86Z"/><path class="cls-2" d="M135.75,73.17v7.49h-1.13V73.17h-2.8v-.94h6.74v.94Z"/><path class="cls-2" d="M144.08,80.86c-2.17,0-3.46-1-3.46-3.25V72.23h1.12v5.38a2.1,2.1,0,0,0,2.34,2.3,2,2,0,0,0,2.19-2.3V72.23h1.13v5.38A3,3,0,0,1,144.08,80.86Z"/><path class="cls-2" d="M155.94,80.66c-.32-.34-.14-1.25-.31-2.08s-.32-1.52-1.39-1.52h-2.75v3.6h-1.12V72.23h4c1.58,0,2.56.87,2.56,2.2a2,2,0,0,1-1.46,2.14v0c1,.18,1.18.9,1.27,1.73a4.25,4.25,0,0,0,.49,2.33Zm-1.66-7.49h-2.79v2.94h2.34c1,0,1.94-.27,1.94-1.49A1.34,1.34,0,0,0,154.28,73.17Z"/><path class="cls-2" d="M162.68,77.21v3.45h-1.13V77.21l-3.25-5h1.33l2.53,4,2.46-4h1.28Z"/><path class="cls-2" d="M171,80.86c-1.89,0-3.48-.92-3.48-3h1.06c0,1.4,1.18,2,2.46,2,1,0,2.14-.31,2.14-1.53s-1.35-1.36-2.7-1.65-2.7-.69-2.7-2.24c0-1.71,1.52-2.46,3.06-2.46,1.72,0,3,.82,3.1,2.66H172.9A1.83,1.83,0,0,0,170.81,73c-.95,0-1.89.33-1.89,1.44s1.35,1.18,2.7,1.49,2.69.78,2.69,2.43S172.56,80.86,171,80.86Z"/><path class="cls-2" d="M179.89,73.17v7.49h-1.13V73.17H176v-.94h6.74v.94Z"/><path class="cls-2" d="M188.3,77.21v3.45h-1.13V77.21l-3.27-5h1.35l2.52,4,2.47-4h1.27Z"/><path class="cls-2" d="M197.12,80.86c-2.62,0-3.9-1.93-3.9-4.39s1.4-4.44,4-4.44a3.23,3.23,0,0,1,3.47,2.74h-1.12A2.21,2.21,0,0,0,197.21,73c-2,0-2.86,1.64-2.86,3.41,0,1.92.85,3.52,2.86,3.52a2.39,2.39,0,0,0,2.44-2.43h1.11A3.43,3.43,0,0,1,197.12,80.86Z"/><path class="cls-2" d="M202.68,80.66v-1l5.24-6.54h-4.84v-.94h6.17v.94L204,79.71h5.38v1Z"/><path class="cls-2" d="M217.2,80.66l-4.4-6.77h0v6.77h-1.06V72.23h1.19l4.44,6.83h0V72.23h1.06v8.43Z"/><path class="cls-2" d="M227,80.66l-.92-2.54h-3.56l-.94,2.54h-1.16l3.29-8.43H225l3.29,8.43Zm-2.68-7.41h0l-1.42,3.93h2.85Z"/><polygon class="cls-3" points="91.12 28.71 91.46 29.11 91.69 29.45 91.94 29.86 92.19 30.28 92.51 31.18 92.85 31.99 93.1 33.3 93.42 34.8 93.68 36.19 93.83 37.59 93.91 37.83 94 38.01 94 38.33 94.34 40.64 94.67 42.85 94.67 42.85 94.74 43.92 94.9 45 94.9 45.16 94.9 45.23 94.99 45.41 94.99 45.56 95.07 46.31 95.14 47.05 95.23 47.79 95.33 48.54 95.33 49.35 95.39 50.08 95.65 52.88 95.81 55.76 96.05 58.65 96.31 61.34 96.31 61.76 96.54 63.56 96.79 65.29 96.88 65.85 96.96 66.43 97.03 67.18 97.13 67.5 97.22 67.83 97.29 68.58 97.37 69.16 97.45 69.81 97.54 70.48 97.62 70.71 97.62 71.03 97.45 71.13 97.37 71.21 97.29 71.29 97.29 71.53 97.37 71.87 97.37 72.02 97.37 72.19 97.37 72.85 97.29 72.77 97.29 72.6 97.29 72.52 97.22 72.36 97.13 72.19 97.03 71.87 96.96 71.69 96.88 71.46 96.79 71.46 96.79 71.53 96.79 71.69 96.71 71.69 95.97 69.49 95.33 67.35 94.74 65.13 94.34 62.9 93.91 60.7 93.5 58.47 93.26 56.17 93.02 53.95 92.6 48.7 92.12 43.67 91.86 41.13 91.46 38.66 91.04 36.03 90.55 33.4 90.3 32.17 89.97 30.93 89.89 30.85 89.81 30.76 89.63 30.76 89.48 30.76 89.15 30.93 88.98 31.18 88.73 31.5 88.57 31.74 88.25 32.4 87.92 33.08 87.17 34.72 86.44 36.27 85.69 37.92 85.12 39.57 85.05 39.57 84.29 41.55 84.22 41.79 84.13 42.12 83.73 43.34 83.56 43.92 83.3 44.58 82.89 45.49 82.56 45.89 82.24 46.31 82.08 46.48 81.83 46.64 81.43 46.8 80.6 47.21 80.19 47.21 79.94 47.13 79.61 46.97 79.35 46.8 79.03 46.39 78.78 46.14 78.71 45.89 78.54 45.49 78.38 45.08 78.22 44.24 77.89 40.64 77.71 38.82 77.46 37.1 76.23 38.74 75.17 40.38 74.17 42.12 73.7 43.01 73.27 43.92 72.13 46.22 70.89 48.54 70.72 49.03 70.48 49.52 70.31 49.85 70.16 50.08 69.82 50.84 69.5 51.49 69.25 51.72 69 51.98 68.67 52.23 68.33 52.48 68.17 52.55 68.02 52.55 67.84 52.55 67.68 52.55 67.52 52.39 67.36 52.31 67.28 51.98 67.18 51.65 67.18 51.32 67.36 51.16 67.36 51.07 67.52 50.99 67.44 50.91 67.52 50.91 67.52 50.84 67.52 50.74 67.61 50.66 67.68 50.59 67.68 50.51 67.76 50.34 67.76 50.34 67.76 50.26 67.84 50.18 67.84 50.08 68.02 49.85 68.17 49.6 69.17 47.45 69.17 47.38 69.25 47.21 69.25 47.05 69.33 46.97 69.41 46.88 69.41 46.72 69.73 46.31 69.65 46.22 69.82 46.06 69.91 45.81 69.98 45.56 70.16 45.33 70.16 45.33 70.16 45.33 70.16 45.23 70.24 45.08 70.31 44.91 70.39 44.83 70.48 44.67 70.39 44.67 70.48 44.58 70.56 44.58 70.56 44.5 70.81 43.92 71.05 43.34 71.05 43.34 71.14 43.26 71.23 43.19 71.23 43.1 71.62 42.28 71.8 42.03 71.95 41.7 72.36 41.03 72.62 40.64 72.86 40.38 72.86 40.23 72.94 40.13 73.12 39.89 73.27 39.57 73.44 39.4 73.52 39.15 73.7 38.98 73.85 38.82 73.92 38.58 74.68 37.75 75.34 36.94 76.08 36.11 76.48 35.78 76.9 35.37 77.31 35.12 77.79 34.96 78.3 34.87 78.78 34.96 79.53 35.28 79.76 35.94 79.94 36.36 80.09 36.69 80.09 36.85 80.19 37.01 80.19 37.17 80.19 37.27 80.51 38.66 80.76 40.05 80.92 41.55 81.01 42.93 81.17 42.69 81.26 42.45 81.43 42.12 81.58 41.87 81.58 41.62 81.58 41.55 81.74 41.46 81.66 41.37 81.74 41.29 81.74 41.21 81.74 41.13 81.83 40.95 81.99 40.71 82.16 40.3 82.16 40.3 82.16 40.23 82.16 40.13 82.24 40.05 82.56 39.4 82.74 38.98 82.81 38.58 82.89 38.41 82.97 38.16 83.07 38.08 83.15 37.92 83.3 37.51 83.8 36.36 84.63 34.87 85.36 33.3 86.27 32.07 87.17 30.76 87.17 30.76 87.25 30.76 87.25 30.68 87.34 30.61 88.07 29.77 88.49 29.37 88.98 29.03 89.48 28.79 89.97 28.63 90.3 28.63 90.55 28.63 90.8 28.63 91.12 28.71 91.12 28.71"/><polygon class="cls-4" points="59.57 35.2 59.73 35.53 59.89 35.86 60.05 36.19 60.05 36.44 60.05 36.85 60.05 37.17 59.89 37.83 59.64 38.48 59.31 39.06 58.65 40.3 59.73 40.13 60.71 40.23 61.29 40.23 61.77 40.38 62.26 40.55 62.76 40.71 62.99 40.95 63.16 41.13 63.33 41.46 63.41 41.7 63.48 42.03 63.48 42.35 63.48 42.69 63.41 42.93 63.16 43.76 62.84 44.5 62.26 45.16 62 45.49 61.67 45.81 62.17 45.98 62.66 46.22 63.09 46.48 63.57 46.8 63.9 47.21 64.23 47.63 64.56 48.03 64.72 48.54 64.88 49.03 64.99 49.52 65.06 50.01 65.06 50.59 64.99 51.07 64.81 51.49 64.63 51.98 64.4 52.48 64.15 52.88 63.82 53.39 63.09 54.12 62.33 54.85 61.53 55.52 60.71 56.09 60.3 56.25 59.89 56.42 59.06 56.67 57.34 57 57.16 57 57.01 57.08 56.84 57.08 56.84 57.08 56.84 56.92 56.93 56.92 57.01 56.83 57.16 56.83 57.26 56.75 57.09 56.67 56.93 56.59 56.52 56.59 56.19 56.59 55.78 56.59 54.61 56.34 54.06 56.17 53.8 56.09 53.55 55.84 53.73 55.76 53.88 55.7 54.29 55.7 54.71 55.7 55.11 55.7 55.93 55.59 56.84 55.44 57.67 55.26 58.48 55.03 59.23 54.61 59.97 54.2 60.71 53.79 61.36 53.14 61.85 52.73 62.17 52.15 62.58 51.65 62.84 50.99 62.99 50.41 63.16 49.75 63.09 49.1 62.99 48.44 62.91 48.29 62.84 48.03 62.51 47.63 62.33 47.45 62.09 47.38 61.92 47.3 61.67 47.21 61.13 47.13 60.45 47.13 59.23 47.21 59.14 47.05 58.98 46.97 58.9 46.88 58.9 46.8 58.98 46.72 58.98 46.31 58.98 45.98 59.06 45.81 59.14 45.65 59.31 45.49 59.47 45.41 59.89 45.16 60.22 44.91 60.55 44.58 60.87 44.24 61.2 43.85 61.45 43.34 61.67 42.78 61.77 42.28 61.77 42.12 61.67 41.95 61.6 41.79 61.45 41.7 61.13 41.62 60.78 41.55 60.55 41.46 60.22 41.46 59.64 41.46 58.98 41.62 57.83 41.95 57.16 42.03 56.52 42.12 56.27 42.03 56.11 41.87 56.03 41.79 55.93 41.46 55.85 41.21 55.93 40.88 55.93 40.64 56.76 39.65 57.16 39.15 57.5 38.66 57.83 38.08 58.07 37.51 58.07 37.17 58.16 36.94 58.16 36.61 58.07 36.27 57.92 36.11 57.75 35.94 57.5 35.78 57.26 35.7 56.76 35.7 56.27 35.7 55.78 35.78 55.38 35.86 54.95 36.03 54.46 36.19 53.73 36.61 52.9 37.1 52.16 37.75 51.58 38.41 51.01 39.15 50.76 39.57 50.68 39.72 50.68 39.89 50.59 40.13 50.43 40.38 50.35 40.95 50.26 41.37 50.26 41.87 50.26 42.12 50.19 42.28 50.1 42.52 50.02 42.69 49.86 42.85 49.77 43.01 49.69 43.01 49.44 43.01 49.21 42.93 48.95 42.78 48.71 42.6 48.53 42.45 48.44 42.21 48.29 42.03 48.2 41.79 48.2 41.62 48.05 41.62 47.96 41.55 47.88 41.46 47.47 41.46 46.98 41.46 46.55 41.46 46.23 41.62 45.82 41.7 45.42 41.95 45.09 42.21 44.84 42.52 44.52 43.1 44.34 43.67 44.19 44.24 44.19 44.91 44.27 45.56 44.34 46.14 44.59 46.72 44.84 47.3 45.01 47.45 45.09 47.63 45.24 47.86 45.24 47.96 45.17 48.03 45.17 48.29 45.01 48.54 44.92 48.7 44.92 48.86 44.92 48.94 44.84 49.03 44.66 49.1 44.34 49.03 43.85 48.86 43.27 48.86 42.61 48.86 42.04 48.86 41.38 48.86 40.81 48.94 40.24 49.03 39.99 49.19 39.74 49.35 39.48 49.6 39.33 49.85 39.16 50.26 39.16 50.74 39.26 51.16 39.33 51.57 39.57 51.98 39.81 52.39 40.15 52.73 40.47 53.06 40.81 53.39 41.22 53.62 41.7 53.88 42.14 54.12 42.61 54.2 43.12 54.37 43.61 54.37 44.19 54.37 44.27 54.45 44.27 54.53 44.27 54.61 44.19 54.7 44.19 54.7 44.19 54.85 44.34 55.11 44.52 55.36 44.52 55.44 44.59 55.59 44.52 55.84 44.34 56.02 44.19 56.09 44.02 56.17 43.77 56.09 43.36 56.02 43.19 56.02 42.94 56.02 42.21 55.92 41.38 55.7 40.65 55.44 39.9 55.03 39.26 54.53 38.67 54.04 38.1 53.46 37.61 52.81 37.43 52.31 37.19 51.72 37.1 51.24 37.1 50.66 37.1 50.08 37.19 49.52 37.36 49.03 37.61 48.54 38.02 48.11 38.5 47.79 39 47.53 39.48 47.3 40.07 47.13 40.65 47.05 41.22 47.13 41.8 47.21 42.61 47.38 42.61 47.38 42.3 46.64 42.14 45.89 42.04 45.08 42.04 44.24 42.14 43.51 42.37 42.69 42.69 42.03 42.94 41.7 43.19 41.37 43.77 40.95 44.34 40.55 45.01 40.23 45.66 40.05 46.4 39.89 47.06 39.89 47.8 39.89 48.53 40.05 49.11 39.06 49.77 38.08 50.51 37.17 50.93 36.77 51.34 36.44 51.74 36.03 52.24 35.7 52.64 35.37 53.15 35.04 53.73 34.87 54.21 34.63 54.71 34.38 55.27 34.3 55.78 34.13 56.35 34.06 56.93 34.06 57.5 34.06 58.07 34.13 58.65 34.38 58.9 34.55 59.14 34.72 59.31 34.96 59.57 35.2 59.57 35.2"/><polygon class="cls-5" points="52.06 47.38 51.92 48.19 51.66 48.94 51.17 50.26 50.85 51.57 50.1 54.2 50.02 54.61 49.86 55.11 49.44 57 49.11 58.8 48.71 60.7 48.44 62.5 48.2 64.38 48.05 66.28 47.96 68.16 47.96 70.15 48.05 71.29 48.13 72.52 48.44 74.9 48.38 75 48.29 75.08 48.2 75.08 48.13 75 48.05 75 47.96 75.15 47.96 75.32 47.88 75.66 47.8 75.81 47.64 75.89 47.54 75.98 47.31 75.89 46.73 75.57 46.48 74.75 46.32 73.84 46.15 73.02 46 72.19 45.82 70.38 45.75 68.58 45.75 66.77 45.9 64.96 46.08 63.15 46.32 61.34 46.65 59.63 47.06 57.91 47.54 56.25 48.2 54.53 49.28 51.98 49.86 50.66 50.51 49.42 51.08 48.36 51.41 47.79 51.83 47.3 51.92 47.21 51.99 47.3 52.06 47.38 52.06 47.38"/><polygon class="cls-5" points="65.8 58.57 65.87 58.9 65.96 59.05 65.96 59.14 66.03 59.3 66.03 59.38 66.03 59.55 66.12 59.7 66.12 59.87 66.12 60.12 66.2 60.29 66.2 60.53 66.29 61.26 66.37 61.99 66.37 62.23 66.37 62.5 66.45 62.65 66.45 62.98 66.37 63.3 66.85 62.98 67.28 62.65 68.09 61.91 70.24 60.46 72.36 58.8 72.53 58.72 72.71 58.65 72.86 58.47 73.03 58.47 73.12 58.57 73.03 58.65 73.12 58.65 73.12 58.65 73.27 58.72 72.86 59.05 72.94 59.05 73.03 59.14 73.12 59.05 73.27 58.97 73.27 58.97 73.36 58.97 73.52 58.9 73.7 58.8 73.85 58.72 74.02 58.8 74.02 58.8 73.92 58.9 73.92 58.9 73.92 58.97 73.85 59.05 73.92 59.05 74.02 59.05 74.26 58.97 73.92 59.3 73.52 59.55 72.86 60.29 72.29 61.02 71.62 61.76 71.62 61.76 71.05 62.33 71.37 62.82 71.8 63.3 72.13 63.88 72.29 64.13 72.45 64.47 72.71 64.96 73.03 65.53 73.27 66.03 73.36 66.28 73.36 66.51 73.44 66.84 73.52 67.09 73.6 67.42 73.7 67.67 73.7 67.83 73.77 67.92 73.85 68.25 73.85 68.41 73.92 68.58 74.1 69.23 74.17 69.39 74.17 69.49 74.26 69.64 74.26 69.72 74.35 70.05 74.35 70.38 74.1 70.15 74.1 70.22 74.02 70.31 74.1 70.48 74.17 70.62 74.1 70.71 74.1 70.71 73.92 70.48 73.77 70.22 73.7 70.15 73.7 70.15 73.52 70.05 73.19 69.56 72.78 69.07 72.13 68 70.72 65.95 69.41 63.81 69.33 63.73 68.17 64.71 67.61 65.2 67.03 65.62 66.37 66.28 66.37 67.09 66.37 68 66.37 68.91 66.29 69.39 66.2 69.81 66.12 69.81 66.03 69.81 65.96 69.64 66.03 69.32 66.03 69.32 65.96 69.32 65.8 69.64 65.71 69.9 65.63 70.15 65.46 70.38 65.14 70.62 64.99 70.71 64.81 70.8 64.81 70.8 64.49 70.71 64.31 70.56 64.23 70.38 64.07 69.56 63.9 68.73 63.9 68.66 63.9 66.94 63.9 66.94 63.9 66.84 63.9 66.77 63.9 66.03 63.98 65.2 64.15 63.63 64.49 62.17 64.72 60.7 65.14 58.9 65.14 58.72 65.31 58.72 65.39 58.65 65.39 58.47 65.46 58.39 65.63 58.47 65.8 58.57 65.8 58.57"/><polygon class="cls-5" points="57.92 62.9 58.48 62.98 58.98 63.15 59.47 63.4 59.73 63.48 59.97 63.63 60.13 63.88 60.3 64.06 60.3 64.22 60.3 64.28 60.3 64.38 60.13 64.47 59.89 64.47 59.47 64.47 58.98 64.38 58.57 64.28 57.92 64.28 57.34 64.28 56.68 64.47 56.11 64.55 55.53 64.8 54.95 65.04 54.46 65.38 54.06 65.7 53.88 65.95 53.8 66.1 53.73 66.36 53.88 66.6 54.06 66.77 54.21 66.84 54.46 66.84 54.71 66.84 55.27 66.84 55.69 66.84 56.35 67.01 57.01 67.09 57.67 67.27 58.33 67.5 58.9 67.83 59.47 68.16 59.97 68.58 60.45 68.99 60.63 69.23 60.78 69.56 60.87 69.9 60.95 70.15 60.95 70.31 60.95 70.48 61.04 70.8 60.95 71.21 60.95 71.53 60.78 71.87 60.55 72.27 60.37 72.6 60.05 72.94 59.47 73.52 59.14 73.75 58.98 73.84 58.73 73.92 58.33 74.17 58 74.34 57.16 74.58 56.35 74.82 55.44 74.9 55.11 74.9 54.71 74.9 54.29 74.82 53.88 74.75 53.55 74.58 53.15 74.34 52.9 74.08 52.64 73.75 52.4 73.52 52.24 73.25 51.99 72.6 51.99 72.36 52.06 72.19 52.32 71.87 52.57 71.53 52.73 71.21 52.97 70.89 53.22 70.62 53.55 70.56 53.73 70.56 53.88 70.56 53.8 70.71 53.8 70.8 53.88 70.89 53.96 70.96 53.96 71.03 54.06 71.21 54.38 71.61 54.61 71.79 54.79 71.95 55.11 72.12 55.38 72.27 55.6 72.36 55.93 72.36 56.59 72.44 57.26 72.36 57.42 72.27 57.67 72.27 58 72.12 58.33 71.95 58.65 71.69 58.9 71.36 58.98 70.8 58.98 70.56 58.98 70.22 58.98 70.05 58.98 69.97 58.9 69.97 58.81 69.72 58.65 69.49 58.48 69.32 58.25 69.16 57.75 68.91 57.5 68.73 57.26 68.66 56.68 68.58 56.19 68.5 55.04 68.5 54.29 68.5 53.55 68.41 52.82 68.33 52.16 68.08 51.92 67.92 51.74 67.67 51.58 67.42 51.51 67.18 51.41 66.94 51.34 66.6 51.41 66.28 51.41 66.03 51.74 65.53 51.99 65.04 52.16 65.04 52.16 64.96 52.32 64.8 52.97 64.38 53.55 63.96 54.21 63.63 54.95 63.3 55.53 63.15 56.11 62.98 56.68 62.9 57.34 62.9 57.67 62.9 57.92 62.9 57.92 62.9"/><polygon class="cls-5" points="39.16 65.7 39.16 65.79 39.16 65.85 39.26 66.03 39.26 66.1 39.26 66.18 39.16 66.18 38.67 66.28 38.27 66.36 37.84 66.51 37.43 66.6 37.19 66.69 37.1 66.77 37.03 66.84 36.78 66.94 36.6 67.01 36.53 67.18 36.53 67.18 36.2 67.35 35.94 67.59 35.72 67.83 35.47 68 35.13 68.33 34.88 68.73 34.63 69.16 34.48 69.49 34.4 69.72 34.31 69.97 34.23 70.22 34.15 70.48 34.23 71.13 34.31 71.36 34.48 71.69 34.63 71.95 34.81 72.19 35.05 72.36 35.38 72.52 35.86 72.69 36.28 72.77 36.78 72.69 37.19 72.6 37.61 72.44 38.02 72.27 38.34 71.95 38.67 71.69 39.07 71.13 39.41 70.48 39.48 70.15 39.57 69.72 39.57 69.39 39.57 68.99 39.41 68.66 39.26 68.41 38.82 67.83 38.82 67.75 38.92 67.75 39 67.75 39.07 67.67 38.92 67.42 38.92 67.35 39 67.27 39.07 67.35 39.16 67.35 39.26 67.42 39.33 67.35 39.33 67.27 39.41 67.18 39.66 67.09 39.9 67.09 40.15 67.18 40.4 67.35 40.65 67.59 40.81 67.75 41.05 68.25 41.22 68.73 41.47 69.23 41.47 69.32 41.47 69.39 41.55 69.49 41.55 70.31 41.47 71.13 41.3 71.87 41.05 72.6 40.98 72.69 40.98 72.69 40.98 72.77 40.9 72.77 40.73 73.02 40.65 73.25 39.74 74.17 38.5 74.9 37.94 75.23 37.61 75.32 37.29 75.4 36.94 75.48 36.7 75.57 36.2 75.57 35.62 75.48 35.13 75.4 34.81 75.32 34.55 75.32 34.15 75.15 33.82 74.9 33.49 74.75 33.16 74.41 32.84 74.17 32.58 73.84 32.42 73.43 32.18 73.11 32.18 72.94 32.09 72.77 32.09 72.69 32.01 72.52 32.01 71.95 32.01 71.36 32.09 70.89 32.26 70.31 32.26 70.22 32.26 70.15 32.34 69.97 32.34 69.97 32.42 69.64 32.51 69.39 32.84 68.91 33.49 67.92 33.9 67.35 34.4 66.84 34.96 66.36 35.54 65.95 36.13 65.53 36.78 65.29 37.52 65.04 38.17 64.96 38.5 65.04 38.82 65.13 39.07 65.38 39.16 65.53 39.16 65.7 39.16 65.7"/><polygon class="cls-6" points="71.37 72.52 73.27 73.25 73.7 73.43 73.85 73.52 74.02 73.59 74.26 73.68 74.5 73.84 74.5 73.75 74.84 73.92 75.09 74.08 75.34 74.17 75.66 74.34 76.58 74.75 77.63 75.15 78.12 75.32 78.63 75.4 79.2 75.57 79.69 75.57 79.94 75.66 81.33 75.66 82.08 75.57 82.81 75.48 83.48 75.32 84.13 75.15 84.78 74.9 85.44 74.67 86.44 74.25 86.93 74.01 87.34 73.75 87.82 73.43 88.32 73.18 88.91 72.94 89.39 72.77 89.97 72.6 90.55 72.44 91.12 72.36 91.69 72.36 91.94 72.36 92.19 72.36 93.18 72.44 94.16 72.69 95.07 73.02 95.88 73.43 96.71 74.01 97.45 74.58 98.19 75.23 98.86 75.98 99.18 76.55 99.51 77.12 99.74 77.7 99.92 78.36 99.84 78.77 99.74 78.94 99.59 79.02 99.42 78.94 99.34 78.86 99.27 78.94 99.18 78.94 99.09 78.77 98.03 78.04 97.54 77.45 97.03 76.89 96.46 76.39 95.81 75.89 95.14 75.4 94.49 75.08 93.68 74.82 92.92 74.58 92.19 74.49 91.36 74.49 90.62 74.58 90.3 74.67 89.97 74.82 89.31 75.15 88.73 75.48 87.42 76.06 86.19 76.55 84.86 76.97 84.78 77.04 83.23 77.45 82.41 77.62 81.58 77.78 80.76 77.88 79.94 77.95 79.11 77.95 78.38 77.88 77.56 77.78 76.73 77.62 76.73 77.62 76.65 77.62 76.65 77.62 76.58 77.62 75.66 77.37 74.92 77.04 74.68 76.97 74.43 76.89 73.92 76.72 73.52 76.47 73.44 76.39 73.27 76.31 72.78 76.06 72.36 75.73 72.04 75.57 71.71 75.32 71.62 75.32 71.47 75.23 71.31 75.15 71.14 75 70.97 74.9 70.81 74.82 70.64 74.75 70.48 74.75 70.48 74.67 70.39 74.67 70.31 74.67 70.24 74.58 70.06 74.49 69.82 74.41 69.82 74.41 69.73 74.41 69.73 74.41 69.73 74.34 69 74.17 68.93 74.08 68.75 74.08 68.59 74.08 67.94 73.84 67.18 73.75 66.37 73.75 65.54 73.75 64.81 73.84 63.98 74.01 63.24 74.25 62.51 74.58 62 74.9 61.53 75.23 61.6 75 61.67 74.82 61.85 74.75 62.09 74.41 62.51 74.08 62.84 73.84 63.16 73.52 63.33 73.52 63.41 73.43 63.48 73.25 63.57 73.25 63.57 73.25 64.15 72.85 64.4 72.69 64.72 72.6 64.88 72.44 65.14 72.36 65.46 72.27 66.2 72.12 66.94 71.95 67.76 71.95 68.5 71.95 69.25 72.02 69.91 72.19 70.64 72.27 71.37 72.52 71.37 72.52"/><polygon class="cls-6" points="69.07 77.88 71.05 78.53 71.37 78.68 71.62 78.77 71.8 78.86 72.04 78.94 72.29 79.02 72.86 79.27 73.19 79.34 73.44 79.51 74.43 79.84 75.5 80.25 76.48 80.51 77.06 80.58 77.56 80.66 77.79 80.66 79.28 80.66 80.02 80.58 80.67 80.51 81.43 80.43 82.08 80.25 82.74 80 83.48 79.84 84.46 79.42 84.86 79.27 85.36 78.94 86.36 78.44 86.93 78.2 87.42 78.04 88 77.95 88.57 77.78 89.23 77.7 89.81 77.7 90.05 77.7 90.38 77.7 91.36 77.78 92.27 78.04 93.26 78.28 94.16 78.68 94.99 79.2 95.73 79.67 96.39 80.33 97.03 80.99 97.45 81.49 97.78 82.07 98.03 82.63 98.19 83.13 98.11 83.46 98.03 83.62 97.87 83.71 97.78 83.62 97.62 83.62 97.54 83.62 97.45 83.62 97.29 83.54 96.31 82.88 95.81 82.3 95.23 81.82 94.67 81.32 94 80.83 93.35 80.51 92.6 80.18 91.86 79.93 91.04 79.67 90.3 79.59 89.48 79.59 88.73 79.75 88.41 79.84 88 79.93 87.42 80.25 86.75 80.58 85.44 81.08 84.22 81.56 82.81 81.89 82.81 81.98 81.17 82.3 80.34 82.47 79.53 82.63 78.71 82.73 77.89 82.73 76.98 82.73 76.14 82.73 74.59 82.47 74.5 82.47 74.5 82.47 74.43 82.47 74.43 82.47 73.52 82.22 73.03 82.15 72.71 81.98 72.36 81.89 72.13 81.74 71.71 81.64 71.31 81.41 71.05 81.32 70.56 81.08 70.06 80.75 69.73 80.58 69.5 80.43 69.33 80.43 69.07 80.18 68.85 80.08 68.67 80 68.42 80 68.26 79.84 68.17 79.84 68.17 79.84 68.09 79.84 68.02 79.75 67.84 79.67 67.76 79.67 67.52 79.59 67.52 79.51 67.44 79.59 67.44 79.59 67.44 79.51 66.62 79.34 66.53 79.27 66.45 79.27 66.29 79.27 65.54 79.11 64.72 79.02 63.98 78.94 63.16 78.94 62.33 79.02 61.53 79.2 60.78 79.42 60.05 79.75 59.57 80 59.06 80.33 59.14 80.08 59.23 80 59.39 79.93 59.64 79.59 60.05 79.27 60.78 78.68 60.87 78.68 60.95 78.68 61.04 78.53 61.13 78.44 61.2 78.53 61.67 78.2 62 78.04 62.33 77.95 62.66 77.78 63.09 77.62 63.82 77.45 64.56 77.37 65.39 77.37 66.12 77.37 66.85 77.45 67.61 77.54 68.33 77.7 69.07 77.88 69.07 77.88"/><path class="cls-5" d="M36.45,54.12l.25.25.15.24v.17l.18.33.07.25v.56l.19.33H37.1v.42L37,57l-.18.33-.15.41-.25.73-.17.1-.15.23-.19.1h0l-.14.33-.26.47-.58.67-.56.41-.5.4-.66.58-.49.23-.49.43-.58.33-.16.23h-.17l-.16.09h0L30,63.81l-.82.25h0V61.12l0,0,.89-.48,1.08-.92L32.34,59l.41-.4.49-.43.41-.4.66-.66V57h0l.09-.07v-.26l.23-.08-.23-.09v-.74l-.09-.07h0l-.08-.33L34,55.11l-.08-.18-.33-.32-.49-.41L32.66,54,32,53.87l-.48-.08-1.08-.33-1.14-.07h-.13V51.15h.13l.74.09h.73l.91.33.66.07.82.34.74.34.83.41.49.08.5.58.22.4.51.33Zm-7.28,9.95-.45.15-1.31.58L25.93,65l-.25.25-.16.09-.09.07.09,2.38.16,2.39v.4l.16,1.5v1.31l.41,2.79v.17h0l-.09.25h0v-.25h-.23v-.17l-.09-.16v1.39l.09.91h-.09l-.16.25.16.16v.17h-.16l-.16.16v.1h-.09l-.25-.43-.07-.41L24.85,78l-.32-.5-.18-.73-.08-.41L24.12,76v-.32h0L24,75.48V75l-.09-.41-.16-.74-.16-.25v-.9l-.17-.09v-.41h0v-.73l-.16-.75v-.33l-.08-.16v-.66l-.25-.4-.07-.5v-.83l-.17-.34v-.22l-.16-.33v-.58h-.09l-.33.15L22,66.6h-.5l-.41.17-.41.17h-.74l-.42.15h-.15l-.74.18-.75.22-.24.19-.32.15-.18-.15,2.23-1.08L20.49,66l.9-.66h.09L22,65h.08l.17-.08v-.41l-.17-.33v-.09L22,62.65v-.23l-.5-1.64V59l-.17-3.21v-.83h0v-.15H21l-.07.15-1.42.33-1.07.5-1.31.74-1,.5-.24.33-.25.33-.41.17-.08.24h-.66l-.24-.24v-.09h-.08l-.07-.08.07-.25v-.08l-.07-.25v-.49l.07-.09.65-.74.66-.4.58-.43.66-.4,1.47-.66,1.31-.66,1.16-.48L22,52.39l1.39-.67.9-.08.84-.07.73-.25.83-.08h.81l1-.09h.69v2.24H27l-1.16.23-1.31.17L23.7,54v.42l.16.24.09.32h0v.43l.58,4.09.65,3.85,2.38-1.47L29,61.18l.13-.06Z"/><path class="cls-5" d="M84.29,58.14l.83,1.31L86,61l.32.81.41,1,.16.74.41.82.24.26.26.07h3l.82-.07.07.07h.09l-.09.09-.07.24-.75.25-.65.16-.91.34-.74.49h-.25l-.07.08-.33.24-.1.09h-.07l.17.73v.91l.23.25v.81h0v-.16h-.23V69h-.1v.5l-.07.15v.41h-.26v2.07h-.07L87.25,72h-.16v-.08H87l-.17-.66-.16-.08h0V71l-.24-.34h-.08v-.24l-.09-.16v-.17l-.17-.24L86,69.49l-.09-.5-.16-.41v-.25l-.18-.17-.08-.23v-.18h0v-.26h-.15v-.4h0L85.12,67v-.32H85l-1.57-.09H82.31V64.38h2v-.1L84.13,64l-.08-.4-.25-.41-.07-.33h0V62.5l-.1-.27h0v-.06l-.24-.34v-.07h0l-.16-.09v-.33l-.16-.08-.1-.32v-.07h0v-.34l-.08-.07h0l-.58,1V58.07l.18-.16v-.5l.07-.25h0v-.08h.09l.32-.15h.26l.16.15h.24l.1.08.32.5.24.48Zm-2,8.46h-.48l-1.49-.32h-.9L78.78,66l-.89,1.4-.59.58-.57.73-.24.25v-.25H76.4v-.33h0v-.08l.33-.32.17-.18v-.26l.16-.14v-.26l.17-.08.07-.32.16-.33.17-.18.08-.65-.48-.24-.33-.16L76.49,65l-.16-.24-.25-.09h0v-.07l.25-.26v-.25L76.4,64v-.08h.66l.65.08h.91l.25-.4L79.2,63l.66-1.31.81-1.21.76-1.41.4-.4.48-.58v3.36l-.15.24-.5,1.15-.23.16v.17l-.1.15-.07.26h-.34v-.08L81,63.3v-.15l-.09.15-.25.18v.08H80.6v.17l-.26.23v.17l.26.15,1.56.1h.15Z"/></g></g></svg>