<?xml version="1.0" encoding="UTF-8" standalone="no"?>
<!DOCTYPE svg PUBLIC "-//W3C//DTD SVG 1.1//EN"
"http://www.w3.org/Graphics/SVG/1.1/DTD/svg11.dtd">


<!-- Page 1 -->
<svg x="0" y="0" width="986" height="488" viewBox="0 0 986 488" version="1.1" xmlns="http://www.w3.org/2000/svg" xmlns:xlink="http://www.w3.org/1999/xlink"
style="display: block;margin-left: auto;margin-right: auto;">
<defs>

<style type="text/css"><![CDATA[

.g1_1{
fill: #FFFFFF;
stroke: #676A6B;
stroke-width: 0.38194445;
stroke-linecap: butt;
stroke-linejoin: miter;
}
.g2_1{
fill: #154373;
}
.g3_1{
fill: #078254;
}
.g4_1{
fill: #EB1C26;
}
.g5_1{
fill: #127EC1;
}
.g6_1{
fill: #676A6B;
}
.g7_1{
fill: none;
stroke: #4E7D39;
stroke-width: 3.9019444;
stroke-linecap: butt;
stroke-linejoin: miter;
}


]]></style>

</defs>
<path d="M0,0
L0,488
L986,488
L986,0 Z " 
fill="#FFFFFF" stroke="none" />
<path d="M977.8,481.3l-477.4,0l0,-469.9l477.4,0l0,469.9Z" class="g1_1" />
<path d="M489.6,481.3l-477.4,0l0,-469.9l477.4,0l0,469.9Z" class="g1_1" />
<path fill-rule="evenodd" d="M380.6,127.5l1.3,1.6l1,1.3l1,1.7l1,1.7l1.3,3.6l1.4,3.3l1,5.3l1.3,6.1l1,5.6l0.6,5.7l0.4,0.9l0.3,0.7l0,1.3l1.4,9.4l1.3,8.9l0.3,4.3l0.6,4.4l0,0.6l0,0.3l0.4,0.8l0,0.6l0.4,3l0.2,3l0.4,3l0.4,3l0,3.3l0.3,2.9l1,11.3l0.6,11.7l1,11.7l1,10.8l0,1.7l1,7.3l1,7l0.4,2.3l0.3,2.3l0.3,3.1l0.4,1.2l0.3,1.4l0.3,3l0.3,2.4l0.4,2.6l0.3,2.7l0.4,0.9l0,1.4l-0.7,0.3l-0.4,0.4l-0.3,0.3l0,1l0.3,1.3l0,0.7l0,0.6l0,2.7l-0.3,-0.3l0,-0.7l0,-0.3l-0.3,-0.7l-0.3,-0.7l-0.4,-1.3l-0.3,-0.7l-0.3,-0.9l-0.4,0l0,0.3l0,0.6l-0.3,0l-3,-8.9l-2.6,-8.7l-2.4,-8.9l-1.6,-9l-1.7,-8.9l-1.7,-9l-1,-9.3l-0.9,-9l-1.7,-21.3l-2,-20.3l-1,-10.2l-1.7,-10L380.2,157l-1.9,-10.6l-1,-5l-1.4,-5l-0.3,-0.3l-0.3,-0.4l-0.7,0l-0.6,0l-1.4,0.7l-0.6,1l-1.1,1.3l-0.6,1l-1.3,2.7l-1.4,2.7l-3,6.6l-2.9,6.3l-3.1,6.7l-2.3,6.6l-0.3,0l-3,8l-0.3,1l-0.4,1.4l-1.6,4.9l-0.7,2.3l-1,2.7l-1.7,3.7l-1.3,1.6l-1.3,1.7l-0.7,0.7l-1,0.7l-1.6,0.6l-3.4,1.6l-1.6,0l-1,-0.3l-1.3,-0.6L333,200.6l-1.3,-1.7l-1,-1l-0.3,-1l-0.7,-1.6l-0.6,-1.7l-0.7,-3.4l-1.3,-14.5l-0.7,-7.4l-1,-6.9l-5,6.6l-4.3,6.6l-4,7.1l-1.9,3.6l-1.8,3.6l-4.6,9.3l-5,9.4l-0.7,2l-1,2l-0.6,1.3l-0.7,0.9l-1.3,3.1l-1.3,2.7l-1,0.9l-1.1,1l-1.3,1l-1.3,1l-0.7,0.3l-0.6,0l-0.7,0l-0.7,0l-0.6,-0.6l-0.7,-0.3l-0.3,-1.4l-0.4,-1.3l0,-1.3l0.7,-0.7l0,-0.4l0.7,-0.3l-0.4,-0.3l0.4,0l0,-0.3l0,-0.4l0.3,-0.3l0.3,-0.3l0,-0.3l0.4,-0.7l0,-0.3l0.3,-0.4l0,-0.4l0.7,-0.9l0.6,-1l4,-8.7l0,-0.3l0.4,-0.7l0,-0.6l0.3,-0.3l0.3,-0.4l0,-0.6l1.3,-1.7l-0.3,-0.4l0.7,-0.6l0.3,-1l0.3,-1l0.7,-1l0,-0.4l0.4,-0.6l0.3,-0.7l0.3,-0.3l0.3,-0.6l-0.3,0l0.3,-0.4l0.4,0l0,-0.3l1,-2.4l0.9,-2.3l0.4,-0.3l0.4,-0.3l0,-0.4l1.6,-3.3l0.7,-1l0.6,-1.3l1.7,-2.7l1,-1.6l1,-1.1l0,-0.6l0.3,-0.4l0.7,-0.9l0.6,-1.4l0.7,-0.6l0.3,-1.1l0.8,-0.6l0.6,-0.7l0.3,-1l3,-3.3l2.7,-3.3l3,-3.3l1.6,-1.4l1.7,-1.6l1.6,-1l2,-0.7l2,-0.3l2,0.3l3,1.3l1,2.7l0.7,1.7l0.6,1.3l0,0.7l0.4,0.6l0,0.7l0,0.4l1.3,5.6l1,5.6l0.7,6l0.3,5.6l0.7,-0.9l0.3,-1l0.7,-1.3l0.6,-1.1l0,-0.9l0,-0.4l0.7,-0.3l-0.4,-0.4l0.4,-0.3l0,-0.3l0,-0.3L343,177l0.7,-1l0.6,-1.7l0,-0.3l0,-0.4l0.4,-0.3l1.3,-2.6l0.7,-1.7l0.3,-1.7l0.3,-0.6l0.3,-1l0.4,-0.4l0.4,-0.6L349,163l2,-4.6l3.4,-6l2.9,-6.4l3.7,-5l3.6,-5.3l0.4,0l0,-0.3l0.3,-0.3l2.9,-3.4l1.8,-1.6l2,-1.3l2,-1l1.9,-0.7l1.4,0l1,0l1,0Z" class="g2_1" />
<path fill-rule="evenodd" d="M253,153.7l0.7,1.3l0.6,1.4l0.7,1.3l0,1l0,1.7l0,1.3l-0.7,2.6l-1,2.7l-1.3,2.3l-2.7,5l4.4,-0.7l3.9,0.4l2.4,0l1.9,0.6l2,0.7l2,0.7l0.9,1l0.8,0.7l0.6,1.3l0.4,0.9l0.3,1.4l0,1.3l0,1.4l-0.3,0.9l-1,3.4l-1.4,3l-2.3,2.6l-1,1.4l-1.4,1.3l2.1,0.7l1.9,0.9l1.8,1.1l1.9,1.3l1.3,1.6l1.4,1.7l1.3,1.7l0.7,2l0.6,2l0.4,2l0.3,2l0,2.3l-0.3,1.9l-0.7,1.7l-0.7,2l-0.9,2l-1,1.6l-1.4,2.1l-2.9,3l-3.1,2.9l-3.3,2.7l-3.3,2.3l-1.6,0.7l-1.7,0.7l-3.3,1l-7,1.3l-0.7,0l-0.6,0.3l-0.7,0l0,-0.6l0.4,0l0.3,-0.4l0.6,0l0.4,-0.3L243,240.5l-0.6,-0.4l-1.7,0l-1.3,0l-1.7,0L233,239.2l-2.2,-0.7l-1.1,-0.4l-1,-1l0.7,-0.3l0.6,-0.3l1.7,0l1.7,0l1.6,0l3.3,-0.4l3.7,-0.6l3.4,-0.7l3.2,-1l3.1,-1.6l3,-1.7l2.9,-1.7l2.7,-2.6l2,-1.6l1.3,-2.4l1.6,-2l1,-2.7l0.6,-2.3l0.8,-2.7l-0.3,-2.6l-0.5,-2.7l-0.3,-0.6l-0.3,-1l-1.3,-1.7l-0.7,-0.7l-1,-0.3l-0.7,-0.3l-1,-0.4l-2.2,-0.3l-2.7,0l-4.9,0.3l-0.4,-0.6l-0.6,-0.3l-0.4,-0.4l0,-0.3l0.4,-0.3l0,-1.7l0,-1.3l0.3,-0.7l0.3,-0.7l0.7,-0.6l0.6,-0.3l1.7,-1.1l1.4,-1l1.3,-1.3l1.3,-1.4l1.3,-1.6l1.1,-2l0.8,-2.3l0.4,-2l0,-0.6L261.5,181l-0.3,-0.7l-0.5,-0.4l-1.4,-0.2l-1.4,-0.4L257,179l-1.3,0l-2.4,0l-2.6,0.7L246,181l-2.7,0.3l-2.6,0.4l-1,-0.4l-0.6,-0.7l-0.4,-0.3L238.3,179L238,178l0.3,-1.3l0,-1l3.4,-4l1.6,-2.1l1.4,-1.9l1.3,-2.4l1,-2.3l0,-1.3l0.4,-1l0,-1.3L247,158l-0.6,-0.6l-0.7,-0.7l-1,-0.7l-1,-0.3l-2,0l-2,0l-2,0.3l-1.6,0.4l-1.7,0.6l-2,0.7l-3,1.7l-3.3,2l-3,2.6l-2.4,2.7l-2.3,2.9l-1,1.7l-0.3,0.7l0,0.7l-0.3,0.9l-0.7,1l-0.4,2.4l-0.3,1.6l0,2l0,1.1l-0.3,0.6l-0.3,1l-0.4,0.7l-0.6,0.6l-0.4,0.7l-0.3,0l-1,0l-1,-0.4l-1,-0.6l-1,-0.7L208.4,183l-0.3,-1l-0.6,-0.7l-0.4,-1l0,-0.6l-0.6,0l-0.4,-0.4L205.8,179l-1.7,0l-2,0l-1.7,0l-1.3,0.7l-1.6,0.2l-1.7,1.1l-1.3,1l-1,1.3l-1.3,2.3l-0.7,2.3l-0.7,2.3l0,2.7l0.4,2.7l0.3,2.3l1,2.4l1,2.3l0.7,0.6l0.3,0.7l0.6,1l0,0.4l-0.3,0.3l0,1l-0.6,1l-0.4,0.6l0,0.7l0,0.3l-0.3,0.4l-0.7,0.3l-1.3,-0.3l-2,-0.7l-2.3,0l-2.7,0l-2.3,0l-2.7,0l-2.3,0.3l-2.3,0.4l-1,0.7l-1,0.6l-1.1,1l-0.6,1l-0.7,1.7l0,1.9l0.4,1.7l0.3,1.7l1,1.6l1,1.7l1.3,1.4l1.3,1.3l1.4,1.3l1.7,1l1.9,1l1.8,1l1.9,0.3l2,0.7l2,0l2.3,0l0.4,0.3l0,0.3l0,0.4l-0.4,0.3l0,0.6l0.7,1.1l0.7,1l0,0.3l0.3,0.6l-0.3,1l-0.7,0.8l-0.7,0.2l-0.6,0.4l-1,-0.4l-1.7,-0.2l-0.7,0l-1,0l-3,-0.4l-3.3,-1l-3,-1l-3,-1.7l-2.6,-2l-2.4,-1.9l-2.3,-2.4l-1.9,-2.6l-0.8,-2l-0.9,-2.4l-0.4,-2l0,-2.3l0,-2.4l0.4,-2.2l0.6,-2l1.1,-2l1.6,-1.7l2,-1.3l2,-1.1l1.9,-0.9l2.4,-0.7l2.3,-0.3l2.4,0.3l2.3,0.3l3.3,0.7L183.2,200l-0.6,-3.1l-0.4,-3.3l0,-3.4l0.4,-2.9l0.9,-3.3l1.3,-2.7l1,-1.4l1,-1.3l2.4,-1.6l2.3,-1.7l2.7,-1.3l2.6,-0.7l3,-0.6l2.7,0l2.9,0l3,0.6l2.4,-4l2.6,-4l3,-3.6l1.7,-1.7l1.6,-1.3l1.7,-1.7l2,-1.3l1.6,-1.3l2.1,-1.4l2.3,-0.6l2,-1l2,-1l2.3,-0.4l2,-0.6l2.3,-0.3l2.4,0l2.3,0l2.3,0.3l2.3,1l1,0.7l1,0.6l0.7,1Z" class="g3_1" />
<path fill-rule="evenodd" d="M222.7,202.9l-0.6,3.3l-1.1,3l-1.9,5.4l-1.3,5.3l-3,10.6l-0.4,1.7l-0.6,2l-1.7,7.6l-1.3,7.3l-1.7,7.7l-1,7.2l-1,7.7l-0.6,7.6l-0.4,7.6l0,8.1l0.4,4.6l0.3,5l1.3,9.6l-0.3,0.4l-0.3,0.3l-0.4,0l-0.3,-0.3l-0.3,0l-0.4,0.6l0,0.7l-0.3,1.3l-0.4,0.7l-0.6,0.3l-0.4,0.3l-0.9,-0.3l-2.4,-1.3l-1,-3.3l-0.6,-3.7l-0.7,-3.3l-0.6,-3.4l-0.7,-7.3l-0.3,-7.3l0,-7.3l0.6,-7.3l0.7,-7.3l1,-7.4l1.3,-6.9l1.7,-6.9l1.9,-6.7l2.7,-7l4.3,-10.3l2.4,-5.3l2.6,-5l2.3,-4.3l1.4,-2.3l1.7,-2l0.3,-0.4l0.3,0.4Z" class="g4_1" />
<path fill-rule="evenodd" d="M278.2,248.1l0.3,1.4l0.4,0.6l0,0.4l0.3,0.6l0,0.3l0,0.7l0.3,0.7l0,0.6l0,1l0.3,0.7l0,1l0.4,2.9l0.3,3l0,1l0,1l0.3,0.6l0,1.4l-0.3,1.3l2,-1.3l1.7,-1.4l3.3,-2.9l8.7,-5.9l8.6,-6.7l0.6,-0.3l0.8,-0.3l0.6,-0.7l0.7,0l0.3,0.3l-0.3,0.4l0.3,0l0.6,0.3l-1.6,1.3l0.3,0l0.4,0.4l0.3,-0.4l0.6,-0.3l0.4,0l0.6,-0.3l0.8,-0.4l0.6,-0.3l0.6,0.3l-0.3,0.4l0,0.3l-0.3,0.3l0.3,0l0.3,0l1,-0.3l-1.3,1.3l-1.7,1l-2.6,3l-2.3,3l-2.7,2.9l-2.4,2.4l1.4,2l1.7,1.9l1.3,2.3l0.7,1.1l0.6,1.3l1.1,2l1.3,2.3l0.9,2l0.4,1l0,1l0.3,1.3l0.3,1l0.3,1.3l0.5,1.1l0,0.6l0.3,0.4l0.3,1.3l0,0.6l0.3,0.7l0.7,2.7l0.3,0.6l0,0.4l0.3,0.6l0,0.3l0.4,1.4l0,1.3l-1,-0.9l0,0.3l-0.4,0.3l0.4,0.7l0.3,0.6l-0.3,0.3l-0.7,-0.9l-0.6,-1L310.2,295l-0.8,-0.4l-1.3,-2l-1.6,-2l-2.7,-4.3L298.1,278l-5.3,-8.7L292.5,269l-4.7,4l-2.3,2l-2.3,1.7l-2.7,2.6l0,3.3l0,3.7l0,3.7l-0.3,1.9l-0.4,1.7l-0.3,0l-0.3,0l-0.3,-0.7l0.3,-1.3l-0.3,0l-0.7,1.3l-0.3,1.1l-0.4,1l-0.6,0.9l-1.4,1l-0.6,0.3l-0.7,0.4l-1.3,-0.4l-0.7,-0.6l-0.3,-0.7l-0.7,-3.3l-0.7,-3.3l0,-0.4l0,-6.9l0,-0.4l0,-0.3l0,-3l0.3,-3.3l0.8,-6.4l1.3,-5.9l1,-5.9l1.6,-7.3l0,-0.7l0.8,0l0.2,-0.3l0,-0.7l0.4,-0.4l0.6,0.4Z" class="g4_1" />
<path fill-rule="evenodd" d="M246.4,265.7l2.2,0.3l2.1,0.7l1.9,1l1.1,0.3l1,0.6l0.6,1l0.7,0.8l0,0.6l0,0.3l0,0.4l-0.7,0.3l-1,0l-1.7,0l-1.9,-0.3L249,271.3l-2.6,0l-2.4,0l-2.7,0.7l-2.2,0.3l-2.4,1l-2.3,1l-2,1.4l-1.6,1.3l-0.8,1l-0.3,0.6l-0.3,1.1l0.6,0.9l0.8,0.7l0.6,0.3l1,0l1,0l2.3,0l1.7,0l2.6,0.7l2.7,0.3l2.7,0.7l2.6,0.9l2.3,1.4l2.3,1.3l2.1,1.7l1.9,1.7l0.7,1l0.6,1.3l0.4,1.4l0.3,1l0,0.6l0,0.7l0.4,1.3l-0.4,1.7l0,1.3l-0.7,1.3l-0.9,1.6l-0.7,1.4l-1.3,1.3l-2.4,2.4l-1.3,0.9l-0.6,0.4l-1.1,0.3l-1.6,1l-1.3,0.7l-3.4,1l-3.3,1l-3.6,0.3l-1.4,0l-1.6,0l-1.7,-0.3L230,313.6l-1.3,-0.7l-1.6,-1l-1,-1L225,309.5l-1,-0.9l-0.6,-1.1l-1,-2.6l0,-1l0.3,-0.7l1,-1.3l1,-1.3l0.7,-1.3l1,-1.3l1,-1.1l1.3,-0.3l0.7,0l0.6,0l-0.3,0.6l0,0.4L230,298l0.4,0.2l0,0.4l0.4,0.7l1.3,1.6l0.9,0.7l0.7,0.6l1.3,0.7l1.1,0.6l0.9,0.4l1.3,0l2.7,0.3l2.7,-0.3l0.6,-0.4l1.1,0l1.3,-0.6l1.3,-0.7l1.3,-1l1,-1.3l0.4,-2.3l0,-1l0,-1.3l0,-0.7l0,-0.3l-0.4,0L250,293.2l-0.7,-0.9l-0.7,-0.7L247.7,291l-2,-1l-1,-0.7l-1,-0.4l-2.4,-0.3l-1.9,-0.3l-4.7,0l-3,0l-3,-0.4l-3,-0.3l-2.6,-1l-1,-0.6l-0.7,-1l-0.7,-1.1L220.4,283l-0.3,-1l-0.4,-1.4l0.4,-1.3l0,-1l1.3,-2l1,-2l0.7,0l0,-0.3l0.6,-0.7l2.7,-1.6l2.3,-1.7l2.7,-1.4l3,-1.3l2.3,-0.6l2.4,-0.7l2.2,-0.3l2.7,0l1.4,0Z" class="g4_1" />
<path fill-rule="evenodd" d="M170.5,277l0,0.3l0,0.3l0.4,0.7l0,0.3l0,0.3l-0.4,0l-2,0.4l-1.6,0.4l-1.7,0.6l-1.7,0.3l-0.9,0.4l-0.4,0.3l-0.3,0.3l-1,0.4l-0.7,0.3l-0.3,0.7l-1.3,0.6l-1.1,1l-0.9,1l-1,0.7l-1.4,1.3l-1,1.7l-1,1.7l-0.6,1.3l-0.3,0.9l-0.4,1.1l-0.3,1l-0.3,1l0.3,2.6l0.3,1l0.7,1.3l0.6,1l0.7,1l1,0.7l1.4,0.7l1.9,0.7l1.7,0.3l2,-0.3l1.7,-0.4l1.7,-0.7l1.6,-0.7l1.3,-1.3l1.3,-1l1.7,-2.3l1.3,-2.6l0.3,-1.3l0.4,-1.8l0,-1.3l0,-1.6l-0.7,-1.4l-0.6,-1l-1.7,-2.3l0,-0.3l0.4,0l0.3,0l0.3,-0.3l-0.6,-1.1l0,-0.3l0.3,-0.3l0.3,0.3l0.3,0l0.4,0.3l0.3,-0.3l0,-0.3l0.3,-0.3l1.1,-0.4l0.9,0l1,0.4l1,0.6l1,1l0.7,0.7l1,2l0.7,2l1,2l0,0.3l0,0.3l0.3,0.4l0,3.3l-0.3,3.3l-0.7,3l-1,3l-0.3,0.4l0,0.3l-0.4,0l-0.6,1l-0.4,0.9l-3.6,3.7l-5,3l-2.3,1.3l-1.3,0.4l-1.3,0.3l-1.5,0.3l-0.9,0.4l-2,0l-2.4,-0.4l-2,-0.3l-1.3,-0.3l-1,0l-1.6,-0.7l-1.3,-1l-1.4,-0.6l-1.3,-1.4l-1.3,-1l-1.1,-1.3l-0.6,-1.7l-1,-1.3l0,-0.7l-0.4,-0.6l0,-0.3l-0.3,-0.7l0,-2.4l0,-2.3l0.3,-1.9l0.7,-2.4l0,-0.3l0,-0.3l0.4,-0.7l0.3,-1.4l0.4,-1L145,290l2.6,-4l1.7,-2.4l2,-2l2.2,-1.9l2.4,-1.7l2.4,-1.7l2.6,-1l3,-1l2.6,-0.3l1.4,0.3l1.3,0.4l1,1l0.3,0.6Z" class="g4_1" />
<path fill-rule="evenodd" d="M300.8,304.6l7.6,2.9l1.8,0.7l0.6,0.4l0.6,0.3l1,0.3l1,0.7l0,-0.4l1.4,0.7l1,0.7l1,0.3l1.3,0.7l3.7,1.7l4.3,1.6l1.9,0.7l2.1,0.3l2.3,0.7l2,0l1,0.3l5.6,0l3,-0.3l3,-0.4l2.7,-0.6l2.6,-0.7l2.7,-1l2.6,-1l4.1,-1.7l1.9,-0.9l1.7,-1.1l2,-1.3l2,-1l2.3,-1l2,-0.6l2.3,-0.7l2.4,-0.7l2.3,-0.3l2.3,0l1,0l1,0l4,0.3l4,1.1l3.7,1.3l3.2,1.6l3.4,2.4l3,2.3l3,2.6l2.7,3l1.3,2.4l1.3,2.2l0.9,2.4l0.7,2.6l-0.3,1.7l-0.4,0.7l-0.6,0.3l-0.7,-0.3l-0.3,-0.3l-0.3,0.3l-0.3,0l-0.4,-0.7l-4.3,-2.9l-2,-2.4l-2,-2.3l-2.3,-2l-2.7,-2l-2.7,-2l-2.6,-1.3l-3.3,-1l-3,-1l-3,-0.4l-3.4,0l-2.9,0.4l-1.3,0.3l-1.4,0.7l-2.7,1.3l-2.3,1.3l-5.3,2.4l-5,2l-5.3,1.6l-0.3,0.3l-6.3,1.7l-3.3,0.7l-3.4,0.6l-3.3,0.4l-3.3,0.3l-3.4,0l-2.9,-0.3l-3.4,-0.4l-3.3,-0.6l-0.3,0l-0.3,0l-3.7,-1l-3,-1.4l-1,-0.3l-1,-0.3l-2,-0.6l-1.7,-1.1l-0.3,-0.3l-0.7,-0.3l-1.9,-1l-1.7,-1.4l-1.4,-0.6l-1.3,-1l-0.3,0l-0.7,-0.4l-0.6,-0.3l-0.7,-0.6l-0.7,-0.4l-0.6,-0.3l-0.7,-0.3l-0.7,0l0,-0.4l-0.3,0l-0.3,0l-0.3,-0.3l-0.7,-0.4l-1,-0.3l-0.4,0l0,-0.3l-3,-0.7l-0.2,-0.3l-0.7,0l-0.7,0l-2.6,-1l-3.1,-0.4l-3.3,0l-3.3,0l-3,0.4l-3.4,0.7l-2.9,0.9l-3,1.4l-2,1.3l-2,1.3l0.3,-0.9l0.3,-0.7l0.8,-0.3l0.9,-1.4l1.7,-1.3l1.3,-1l1.4,-1.3l0.6,0l0.4,-0.4l0.3,-0.7l0.3,0l2.4,-1.6l1,-0.6l1.3,-0.4l0.6,-0.7l1,-0.3l1.4,-0.4l2.9,-0.6l3.1,-0.7l3.3,0l3,0l3,0.4l2.6,0.6l3,0.3Z" class="g5_1" />
<path fill-rule="evenodd" d="M291.5,326.2l7.9,2.7l1.4,0.6l1,0.3l0.7,0.4l1,0.3l1,0.3l2.3,1l1.3,0.3l1,0.7l4,1.4l4.3,1.6l4,1l2.3,0.3l2,0.4l1,0l6,0l3,-0.4l2.7,-0.3l3,-0.3l2.6,-0.7l2.7,-1l3,-0.6l4,-1.7l1.6,-0.7l2,-1.3l4,-2l2.3,-1l2,-0.6l2.4,-0.4l2.3,-0.7l2.6,-0.3l2.4,0l1,0l1.3,0l3.9,0.3l3.7,1.1l4,1l3.7,1.6l3.3,2l3,2l2.7,2.6l2.6,2.7l1.7,2l1.3,2.4l1,2.2l0.7,2l-0.4,1.4l-0.3,0.6l-0.6,0.4l-0.4,-0.4l-0.6,0l-0.4,0l-0.3,0l-0.7,-0.3l-4,-2.7l-2,-2.3l-2.3,-1.9l-2.3,-2.1l-2.7,-1.9l-2.6,-1.4l-3,-1.3l-3,-1l-3.4,-1l-2.9,-0.3l-3.3,0l-3.1,0.6l-1.3,0.4l-1.6,0.3l-2.4,1.3l-2.7,1.3l-5.3,2.1l-4.9,1.9l-5.7,1.3l0,0.4l-6.6,1.3l-3.4,0.7l-3.3,0.6l-3.3,0.4l-3.3,0l-3.7,0l-3.4,0l-6.3,-1l-0.3,0l-0.3,0l-3.7,-1l-1.9,-0.3l-1.3,-0.7l-1.4,-0.4l-1,-0.6l-1.7,-0.4l-1.6,-0.9l-1.1,-0.4l-1.9,-0.9l-2,-1.3l-1.4,-0.8l-0.9,-0.6l-0.7,0l-1,-1l-0.9,-0.4l-0.8,-0.3l-1,0l-0.6,-0.6l-0.4,0l-0.3,0l-0.3,-0.4l-0.7,-0.3l-0.3,0l-1,-0.3l0,-0.4l-0.4,0.4l0,-0.4l-3.3,-0.7l-0.3,-0.3l-0.4,0l-0.6,0l-3,-0.6l-3.3,-0.4l-3.1,-0.3l-3.2,0l-3.4,0.3l-3.3,0.7l-3,1l-2.9,1.3l-2,1l-2,1.3l0.3,-1l0.4,-0.3l0.6,-0.3l1,-1.3l1.7,-1.4l2.9,-2.3l0.4,0l0.3,0l0.4,-0.6l0.3,-0.4l0.3,0.4l1.9,-1.4l1.4,-0.6l1.3,-0.4l1.3,-0.7l1.8,-0.6l2.9,-0.7l3,-0.3l3.3,0l3,0l3,0.3l3,0.4l3,0.6Z" class="g5_1" />
<path fill-rule="evenodd" d="M130.1,270.4l-1.8,0.6l-5.3,2.3l-6,1l-1,1l-0.6,0.4L115,276l0.4,9.6l0.6,9.7l0,0.3l0,0.3l0,1l0.7,6l0,5.3l1.7,11.3l0,0.4l0,0.3l-0.4,1l0,-1l-1,0l0,-0.7l-0.3,-0.6l0,-0.4l0,1l0,0.4l0,2.3l0,0.9l0,1.4l0.3,3.6l-0.3,0l-0.7,1.1l0.7,0.6l0,0.7l-0.7,0l-0.6,0.7l0,0.3l-0.4,0l-1,-1.7l-0.3,-1.7l-1,-1.6l-1.3,-2l-0.7,-2.9l-0.4,-1.7l-0.6,-1.4l0,-0.3l0,-1l-0.6,-0.7l0,-1.9l-0.4,-1.7l-0.7,-3l-0.6,-1l0,-0.7l0,-0.7l0,-0.3l0,-1.9l-0.7,-0.4l0,-1.7l0,-0.3l0,-2.6l-0.6,-3.1l0,-0.3l0,-1l-0.4,-0.6l0,-1l0,-1.7l-1,-1.6l-0.3,-2.1l0,-1.6l0,-0.7l0,-0.6l0,-0.4l-0.7,-1.4l0,-0.6l0,-0.3L103.1,282l0,-1.7l0,-0.6l-0.4,0l-1.3,0.6l-0.3,0.3l-2,0l-1.7,0.7L95.7,282l-1.6,0l-1.3,0l-1.7,0.6l-0.7,0l-3,0.7l-3,0.9L83.5,285l-1.3,0.6L81.4,285l9,-4.4L95,278l3.7,-2.7l0.4,0l2,-1l0.3,0l0.7,-0.3l0,-0.7l0,-1L101.4,271l0,-0.3l-0.3,-6.1l0,-0.9l-2,-6.6l0,-7.3l-0.7,-13l0,-1.6l0,-1.7l0,-0.7l-1,0l-0.3,0l-0.3,0.7l-5.7,1.3l-4.4,2l-5.3,3l-4,2l-0.9,1.4l-1.1,1.3l-1.6,0.7l-0.3,0.9l-1,0l-1.7,0l-1,-0.9l0,-0.4l-0.3,0l-0.3,-0.3l0.3,-1l0,-0.3l-0.3,-1.1l0,-0.6l0,-1.4l0.3,-0.3l2.6,-3l2.7,-1.6l2.3,-1.7l2.7,-1.7l6,-2.6l5.3,-2.7l4.6,-1.9l5.4,-1.4l5.6,-2.7l3.6,-0.3l3.4,-0.3l3,-1l3.3,-0.4l3.3,0l4,-0.3l2.8,0l0,9l-4.4,0l-4.3,0l-4.7,1l-5.3,0.6l-3.4,0.7l0,1l0,0.7l0.7,1l0.4,1.3l0,1.7l2.3,16.5l2.6,15.6l9.6,-5.9l6,-2.7l0.5,-0.2Zm29.5,-40.2l1,1l0.6,1l0,0.6l0.7,1.4l0.3,1l0,1.3l0,1l0.8,1.3l-0.8,0l0,1.3l0,0.4l-0.3,1.3l-0.7,1.4l-0.6,1.6l-1,3l-0.7,0.3l-0.6,1l-0.8,0.4l-0.6,1.3l-1,2l-2.4,2.6l-2.2,1.7l-2,1.6l-2.7,2.3l-2,1l-2,1.7l-2.3,1.3l-0.6,1l-0.7,0l-0.7,0.3l-4.6,3l-3.4,1.1l-0.2,0l0,-11.9l0.2,-0.1l3.6,-2l4.4,-3.6l4.7,-3l1.6,-1.7l2,-1.7l1.7,-1.6l2.6,-2.7l0,-0.3l0.4,-0.3l0,-1l0.9,-0.4l-0.9,-0.3l0,-1l0,-1.3l0,-0.7l-0.4,-0.3l-0.3,-1.3l-1,-1l-0.3,-0.7l-1.4,-1.3L146,230.5l-1.7,-1l-2.7,-0.3l-1.9,-0.4l-4.4,-1.3l-4.6,-0.3l-0.4,0l-0.2,0l0,-9l0.2,0l0.4,0l3,0.3l2.9,0l3.7,1.4l2.7,0.3l3.3,1.3l3,1.4l3.3,1.7l2,0.3l2,2.3l0.9,1.6Z" class="g4_1" />
<path fill-rule="evenodd" d="M345,280.6l-2,0l-6,-1.3l-3.6,0L330.7,278l-3.6,5.6l-2.4,2.4l-2.3,2.9l-1,1.1l0,-1.1l-0.3,0l0,-0.3l0,-1l0,-0.3l1.3,-1.3l0.7,-0.7l0,-1.1l0.7,-0.6l0,-1l0.6,-0.3l0.3,-1.3l0.7,-1.3l0.7,-0.8l0.3,-2.6l-2,-1l-1.3,-0.6l-1.7,-0.4l-0.6,-1l-1,-0.3l0,-0.3l1,-1l0,-0.4l0,-0.6l0.3,-0.7l0,-0.4l0.3,0l1.7,0l0.7,0l2.6,0.4l3.7,0l1,-1.7l1.3,-2.3l2.7,-5.3l3.3,-4.9l3,-5.7l1.6,-1.6l2,-2.4l0,13.6l-0.7,1l-2,4.6l-0.9,0.7l0,0.7l-0.4,0.6l-0.3,1l-1,0l-0.3,0l0,-0.3l0.3,-0.7l0,-0.6l-0.3,0.6l-1,0.7l0,0.3l-0.4,0l0,0.7l-1,1l0,0.7l1,0.6l6.3,0.4l0.7,0Zm8,-34.2l3.3,5.3l3.4,6.4l1.3,3.3l1.6,3.9l0.7,3l1.7,3.4l0.9,1l1,0.3l1.7,0l0.7,0l7,0l3,0l3.3,-0.3l0.3,0.3l0.3,0l-0.3,0.3l-0.3,1l-3,1l-2.7,0.7l-3.7,1.3l-2.9,2l-1,0l-0.3,0.4l-1.4,0.9l-0.3,0.4l-0.4,0l0.7,2.9l0,2.1l0,1.6l1,1l0,0.3l0,1.4l0,1l0,0.6l0,-0.6l-1,0l0,-1l-0.3,0l0,1.6l0,0.4l-0.4,0.6l0,1.4l0,0.3l-1,0l0,1.7l0,0.6l0,2l0,1.7l0,0.6l0,0.7l0,1l-0.3,0L365,302.2l-0.7,0l0,-0.3l-0.3,0l-0.7,-2.6l-0.7,-0.4l0,-0.7l-0.9,-1.3l-0.4,0l0,-1L361,295.3l0,-0.7l-0.7,-1l-0.6,-1.3l-0.4,-2l-0.6,-1.7l0,-1l-0.8,-0.7L357.6,286l0,-0.7l0,-1.1l-0.6,0l0,-0.3l0,-0.3l0,-1l-0.7,-0.3l0,-1l0,-0.3l-0.6,0l-6.4,-0.4l-4.3,0l0,-8.9l2.6,0l4.4,0l0.3,0l0.7,0l0,-0.4L352.3,270L352,268.3l-1,-1.6l-0.3,-1.4l0,-0.3l0,-1l-0.4,-1l0,-0.3l-1,-1.3l0,-0.4l-0.6,-0.3l0,-1l0,-0.4L348,259l-0.4,-1.2l0,-0.4l0,-1l0,-0.3l-0.3,-0.3l-2.3,3.9l0,-13.6l0.7,-0.6l0,-1l0,-1l0.3,-1.1l0,-0.3l0.3,0l1.3,-0.6l1.1,0l0.6,0.6l1,0l0.4,0.3l1.3,2.1Z" class="g4_1" />
<path d="M629,188.1l10.1,-32.5l4.5,0L631.2,194l-4.8,0l-8.3,-32.2l-0.2,0L609.4,194l-5.3,0L592.4,155.6l4.4,0l9.9,32.8l8.9,-32.8l5,0Z" class="g6_1" />
<path d="M677.8,172.1c0,-1.8,-0.3,-3.6,-0.8,-5.2c-0.5,-1.7,-1.3,-3.1,-2.3,-4.3c-1,-1.2,-2.2,-2.2,-3.8,-2.9c-1.5,-0.7,-3.3,-1.1,-5.2,-1.1c-2,0,-3.8,0.4,-5.3,1.1c-1.5,0.7,-2.7,1.7,-3.8,3c-1.1,1.2,-1.9,2.6,-2.6,4.3c-0.6,1.6,-1,3.3,-1.2,5.1Zm-25,3.8c0,2,0.3,4,0.8,5.8c0.5,1.9,1.3,3.5,2.4,4.8c1.1,1.4,2.4,2.5,4,3.3c1.7,0.8,3.5,1.2,5.7,1.2c2.9,0,5.4,-0.7,7.4,-2.3c2.1,-1.5,3.5,-3.7,4.2,-6.5l4.9,0c-0.5,1.8,-1.2,3.5,-2.1,5.1c-0.9,1.5,-2,2.9,-3.3,4.1c-1.4,1.1,-2.9,2,-4.8,2.7c-1.8,0.6,-3.9,0.9,-6.3,0.9c-3.1,0,-5.7,-0.5,-8,-1.5c-2.2,-1.1,-4,-2.5,-5.4,-4.3c-1.5,-1.8,-2.5,-3.9,-3.2,-6.4c-0.7,-2.4,-1.1,-5,-1.1,-7.8c0,-2.9,0.5,-5.5,1.3,-8c0.8,-2.4,1.9,-4.6,3.4,-6.4c1.6,-1.9,3.4,-3.3,5.6,-4.4c2.1,-1.1,4.6,-1.6,7.4,-1.6c5.2,0,9.4,1.8,12.4,5.4c3,3.7,4.5,8.9,4.4,15.9Z" class="g6_1" />
<path d="M719,172.1c0,-1.8,-0.3,-3.6,-0.8,-5.2c-0.5,-1.7,-1.3,-3.1,-2.3,-4.3c-1,-1.2,-2.3,-2.2,-3.8,-2.9c-1.5,-0.7,-3.3,-1.1,-5.3,-1.1c-1.9,0,-3.7,0.4,-5.2,1.1c-1.5,0.7,-2.8,1.7,-3.8,3c-1.1,1.2,-1.9,2.6,-2.6,4.3c-0.6,1.6,-1.1,3.3,-1.3,5.1Zm-25.1,3.8c0,2,0.3,4,0.9,5.8c0.5,1.9,1.3,3.5,2.4,4.8c1,1.4,2.4,2.5,4,3.3c1.6,0.8,3.5,1.2,5.6,1.2c2.9,0,5.4,-0.7,7.5,-2.3c2.1,-1.5,3.5,-3.7,4.2,-6.5l4.9,0c-0.5,1.8,-1.2,3.5,-2.1,5.1c-0.9,1.5,-2,2.9,-3.4,4.1c-1.3,1.1,-2.9,2,-4.7,2.7c-1.8,0.6,-4,0.9,-6.4,0.9c-3,0,-5.7,-0.5,-7.9,-1.5c-2.2,-1.1,-4,-2.5,-5.5,-4.3c-1.4,-1.8,-2.5,-3.9,-3.2,-6.4c-0.6,-2.4,-1,-5,-1,-7.8c0,-2.9,0.4,-5.5,1.2,-8c0.8,-2.4,2,-4.6,3.5,-6.4c1.5,-1.9,3.4,-3.3,5.5,-4.4c2.2,-1.1,4.7,-1.6,7.4,-1.6c5.3,0,9.5,1.8,12.5,5.4c3,3.7,4.5,8.9,4.4,15.9Z" class="g6_1" />
<path d="M732.1,194l0,-53.3l4.4,0l0,33.1l18.8,-18.2l6.1,0L747,169.5L763.1,194l-5,0L743.8,172.6l-7.3,6.9l0,14.5Z" class="g6_1" />
<path d="M797.2,172.1c0,-1.8,-0.3,-3.6,-0.8,-5.2c-0.5,-1.7,-1.3,-3.1,-2.3,-4.3c-1,-1.2,-2.3,-2.2,-3.8,-2.9C788.7,159,787,158.6,785,158.6c-2,0,-3.7,0.4,-5.2,1.1c-1.5,0.7,-2.8,1.7,-3.9,3c-1,1.2,-1.9,2.6,-2.5,4.3c-0.7,1.6,-1.1,3.3,-1.3,5.1Zm-25.1,3.8c0,2,0.3,4,0.9,5.8c0.5,1.9,1.3,3.5,2.4,4.8c1,1.4,2.4,2.5,4,3.3c1.6,0.8,3.5,1.2,5.6,1.2c2.9,0,5.4,-0.7,7.5,-2.3c2.1,-1.5,3.4,-3.7,4.1,-6.5l5,0c-0.5,1.8,-1.3,3.5,-2.1,5.1c-0.9,1.5,-2,2.9,-3.4,4.1c-1.3,1.1,-2.9,2,-4.7,2.7c-1.8,0.6,-4,0.9,-6.4,0.9c-3,0,-5.7,-0.5,-7.9,-1.5c-2.2,-1.1,-4.1,-2.5,-5.5,-4.3c-1.4,-1.8,-2.5,-3.9,-3.2,-6.4c-0.7,-2.4,-1,-5,-1,-7.8c0,-2.9,0.4,-5.5,1.2,-8c0.8,-2.4,2,-4.6,3.5,-6.4c1.5,-1.9,3.3,-3.3,5.5,-4.4c2.2,-1.1,4.6,-1.6,7.4,-1.6c5.3,0,9.4,1.8,12.5,5.4c3,3.7,4.4,8.9,4.4,15.9Z" class="g6_1" />
<path d="M815,194l-4.4,0l0,-38.4l4.4,0l0,5.4c1.8,-1.9,3.6,-3.4,5.5,-4.6c1.9,-1.2,4.2,-1.8,6.9,-1.8c2.3,0,4.5,0.4,6.6,1.2c2,0.8,3.7,2.3,5.1,4.3c0.9,1.4,1.5,2.8,1.6,4.2c0.2,1.5,0.3,3,0.3,4.6l0,25.1l-4.5,0l0,-25c0,-3.5,-0.7,-6.1,-2.2,-7.8c-1.6,-1.7,-4.1,-2.6,-7.7,-2.6c-1.4,0,-2.6,0.2,-3.7,0.6c-1.2,0.4,-2.2,1,-3.1,1.7c-0.9,0.7,-1.7,1.5,-2.4,2.4c-0.6,0.9,-1.1,1.8,-1.4,2.8c-0.5,1.2,-0.7,2.4,-0.8,3.5c-0.1,1.2,-0.2,2.4,-0.2,3.7Z" class="g6_1" />
<path d="M881.3,174.7c0,-2.2,-0.2,-4.3,-0.8,-6.2c-0.6,-2,-1.5,-3.7,-2.6,-5.1c-1.1,-1.5,-2.5,-2.6,-4.1,-3.5c-1.6,-0.9,-3.4,-1.3,-5.4,-1.3c-2.3,0,-4.3,0.5,-6,1.4c-1.7,0.9,-3.1,2.1,-4.2,3.7c-1,1.6,-1.8,3.4,-2.3,5.5c-0.5,2.1,-0.7,4.4,-0.6,6.8c0,2.4,0.3,4.5,1,6.4c0.7,1.9,1.6,3.4,2.8,4.7c1.1,1.3,2.5,2.3,4.1,2.9c1.6,0.7,3.3,1,5.2,1c2.1,0,3.9,-0.4,5.5,-1.2c1.7,-0.9,3,-2,4.1,-3.5c1.1,-1.4,1.9,-3.2,2.5,-5.2c0.6,-2,0.8,-4.1,0.8,-6.4m0,-34l4.5,0l0,53.3l-4.5,0l0,-6.7l-0.1,0c-0.6,1.2,-1.5,2.4,-2.5,3.3c-1,1,-2.1,1.8,-3.3,2.4c-1.2,0.7,-2.5,1.2,-3.8,1.5c-1.2,0.4,-2.5,0.5,-3.7,0.5c-3.1,0,-5.8,-0.5,-7.9,-1.5c-2.2,-1.1,-4,-2.5,-5.4,-4.3c-1.4,-1.8,-2.4,-3.9,-3.1,-6.4c-0.6,-2.5,-1,-5.1,-1,-7.9c0,-2.7,0.4,-5.2,1.1,-7.7c0.7,-2.5,1.7,-4.6,3.1,-6.5c1.4,-1.8,3.2,-3.3,5.4,-4.4c2.1,-1.1,4.6,-1.7,7.6,-1.7c2.7,0,5.3,0.6,7.8,1.8c2.5,1.2,4.4,3,5.8,5.4Z" class="g6_1" />
<path d="M643.1,268.1l0,-3.9l25.5,-30.8l-23.8,0l0,-3.7l29.5,0l0,4l-25.5,30.7l26.4,0l0,3.7Z" class="g6_1" />
<path d="M708.1,247.9c-1.9,0.8,-3.8,1.4,-5.7,1.6c-1.9,0.2,-3.9,0.4,-5.8,0.6c-3.4,0.2,-6,1,-7.9,2.3c-1.9,1.3,-2.9,3.2,-2.9,5.8c0,1.2,0.2,2.3,0.7,3.1c0.5,0.9,1.1,1.6,1.9,2.2c0.7,0.5,1.6,0.9,2.6,1.2c1,0.3,2.1,0.4,3.1,0.4c1.8,0,3.5,-0.2,5.2,-0.6c1.7,-0.5,3.2,-1.2,4.5,-2.1c1.3,-0.9,2.3,-2,3.1,-3.5c0.8,-1.4,1.2,-3,1.2,-5Zm-7.5,-2.2c0.8,-0.1,1.9,-0.2,3,-0.4c1.2,-0.2,2.1,-0.5,2.9,-0.8c0.7,-0.4,1.2,-1,1.3,-1.8c0.2,-0.8,0.3,-1.5,0.3,-2.2c0,-2.3,-0.7,-4.2,-2.2,-5.6c-1.5,-1.5,-3.9,-2.2,-7.4,-2.2c-1.5,0,-2.9,0.1,-4.2,0.4c-1.3,0.3,-2.4,0.7,-3.4,1.4c-0.9,0.7,-1.7,1.6,-2.3,2.7c-0.6,1.1,-1,2.5,-1.2,4.2l-4.6,0c0.2,-2.3,0.7,-4.2,1.6,-5.9c0.9,-1.6,2,-2.9,3.4,-3.9c1.4,-1,3.1,-1.7,4.9,-2.2c1.9,-0.5,3.8,-0.7,5.9,-0.7c1.9,0,3.8,0.2,5.5,0.6c1.7,0.4,3.1,1.1,4.4,2c1.3,0.9,2.2,2.2,3,3.7c0.7,1.5,1,3.4,1,5.6l0,20.9c0,1.7,0.3,2.8,1,3.3c0.6,0.5,1.8,0.4,3.7,-0.3l0,3.4c-0.4,0.1,-0.9,0.3,-1.5,0.5c-0.7,0.2,-1.3,0.3,-2,0.3c-0.7,0,-1.3,-0.1,-2,-0.2c-0.7,-0.1,-1.3,-0.4,-1.8,-0.7c-0.4,-0.4,-0.8,-0.9,-1,-1.4c-0.3,-0.5,-0.5,-1.1,-0.6,-1.7c-0.1,-0.6,-0.1,-1.3,-0.1,-1.9c-1.9,2,-4.1,3.6,-6.5,4.7c-2.4,1.1,-5,1.6,-7.8,1.6c-1.7,0,-3.3,-0.2,-4.9,-0.6c-1.5,-0.5,-2.9,-1.2,-4.1,-2.1c-1.2,-1,-2.1,-2.1,-2.8,-3.5c-0.7,-1.3,-1,-2.9,-1,-4.8c0,-6.5,4.4,-10.4,13.4,-11.6Z" class="g6_1" />
<path d="M749.7,249.1c0,2.1,0.3,4.2,0.9,6.1c0.6,2,1.4,3.7,2.5,5.2c1.2,1.4,2.5,2.6,4.1,3.4c1.6,0.9,3.4,1.3,5.5,1.3c2.2,0,4.2,-0.4,5.9,-1.3c1.7,-1,3.1,-2.2,4.2,-3.8c1.1,-1.6,1.9,-3.4,2.4,-5.5c0.5,-2.1,0.7,-4.4,0.6,-6.8c0,-2.4,-0.4,-4.5,-1,-6.4c-0.7,-1.8,-1.6,-3.4,-2.8,-4.7c-1.2,-1.3,-2.6,-2.2,-4.2,-2.9c-1.5,-0.7,-3.3,-1,-5.1,-1c-2.1,0,-4,0.4,-5.6,1.3c-1.6,0.8,-3,1.9,-4.1,3.4c-1.1,1.5,-1.9,3.2,-2.4,5.2c-0.6,2,-0.9,4.1,-0.9,6.5m0,34.1l-4.4,0l0,-53.5l4.4,0l0,6.8l0.1,0c0.7,-1.3,1.5,-2.4,2.5,-3.4c1,-0.9,2.2,-1.8,3.4,-2.4c1.2,-0.6,2.4,-1.1,3.7,-1.5c1.3,-0.3,2.5,-0.5,3.8,-0.5c3.1,0,5.7,0.5,7.9,1.6c2.2,1,4,2.4,5.4,4.2c1.4,1.8,2.4,3.9,3,6.4c0.7,2.5,1,5.1,1,7.9c0,2.7,-0.3,5.3,-1,7.7c-0.7,2.5,-1.8,4.7,-3.2,6.5c-1.4,1.9,-3.2,3.3,-5.3,4.5c-2.2,1.1,-4.7,1.6,-7.6,1.6c-2.7,0,-5.3,-0.6,-7.8,-1.8c-2.5,-1.2,-4.5,-3,-5.9,-5.4Z" class="g6_1" />
<path d="M801,225.6l8.2,-10.3l5.7,0l-10.1,10.3Zm17.3,23.3c0,-2.3,-0.3,-4.4,-0.8,-6.4c-0.5,-1.9,-1.2,-3.6,-2.3,-5.1c-1,-1.5,-2.3,-2.6,-4,-3.4c-1.6,-0.9,-3.6,-1.3,-6,-1.3c-2.3,0,-4.3,0.5,-5.9,1.4c-1.7,0.9,-3,2.1,-4.1,3.6c-1,1.5,-1.8,3.2,-2.3,5.2c-0.5,1.9,-0.7,3.9,-0.7,6c0,2.4,0.3,4.6,0.8,6.6c0.6,2,1.4,3.7,2.5,5.1c1.1,1.4,2.5,2.6,4.1,3.3c1.6,0.8,3.5,1.2,5.6,1.2c2.3,0,4.3,-0.4,6,-1.3c1.6,-1,3,-2.2,4,-3.7c1.1,-1.5,1.8,-3.3,2.3,-5.2c0.5,-1.9,0.8,-3.9,0.8,-6m-13.1,20.2c-2.4,0,-4.7,-0.5,-6.9,-1.3c-2.1,-0.8,-4,-2.1,-5.6,-3.8c-1.6,-1.7,-2.9,-3.8,-3.8,-6.3c-1,-2.5,-1.4,-5.4,-1.4,-8.8c0,-2.8,0.3,-5.4,1.1,-7.9c0.7,-2.4,1.8,-4.6,3.3,-6.4c1.5,-1.8,3.3,-3.2,5.6,-4.3c2.2,-1.1,4.8,-1.6,7.7,-1.6c3,0,5.7,0.5,7.9,1.6c2.2,1.1,4,2.5,5.5,4.3c1.5,1.8,2.6,3.9,3.3,6.4c0.7,2.5,1.1,5.1,1.1,7.9c0,3.1,-0.4,5.8,-1.3,8.3c-0.8,2.5,-2,4.6,-3.6,6.4c-1.5,1.7,-3.4,3.1,-5.6,4.1c-2.2,0.9,-4.6,1.4,-7.3,1.4Z" class="g6_1" />
<path d="M831.8,268.1l0,-25.2l-5.2,3l0,-4.5l5.2,-2.9l0,-23.7l4.5,0l0,20l5.2,-3l0,4.4l-5.2,3l0,28.9Z" class="g6_1" />
<path d="M693.7,315.9c-0.8,-2.9,-2.2,-5.1,-4.1,-6.7c-1.9,-1.6,-4.4,-2.4,-7.3,-2.4c-2.3,0,-4.2,0.5,-5.9,1.4c-1.6,0.9,-2.9,2.2,-4,3.7c-1,1.6,-1.8,3.3,-2.3,5.3c-0.5,2,-0.7,3.9,-0.7,5.9c0,2,0.2,4,0.7,5.9c0.5,1.9,1.2,3.7,2.3,5.2c1,1.5,2.3,2.7,4,3.7c1.6,0.9,3.6,1.3,5.9,1.3c3.3,0,5.9,-0.9,7.9,-2.7c2,-1.8,3.3,-4.4,3.9,-7.6l4.7,0c-0.4,2.2,-1,4.1,-1.9,5.8c-0.9,1.8,-2,3.3,-3.3,4.6c-1.4,1.2,-3,2.2,-4.9,2.9c-1.9,0.7,-4,1,-6.4,1c-3.1,0,-5.7,-0.5,-7.9,-1.5c-2.3,-1.1,-4.1,-2.5,-5.5,-4.3c-1.4,-1.8,-2.5,-3.9,-3.2,-6.4c-0.7,-2.5,-1,-5.1,-1,-7.9c0,-2.7,0.3,-5.2,1.1,-7.7c0.8,-2.4,1.9,-4.6,3.4,-6.5c1.5,-1.8,3.3,-3.3,5.5,-4.4c2.2,-1.1,4.7,-1.7,7.6,-1.7c4.4,0,8,1.1,10.8,3.2c2.7,2.1,4.4,5.4,5.1,9.9Z" class="g6_1" />
<path d="M735.4,320.3c0,-1.8,-0.2,-3.6,-0.7,-5.3c-0.5,-1.6,-1.3,-3,-2.3,-4.2c-1,-1.3,-2.3,-2.2,-3.8,-2.9c-1.6,-0.7,-3.3,-1.1,-5.3,-1.1c-2,0,-3.7,0.4,-5.2,1.1c-1.5,0.7,-2.8,1.7,-3.9,3c-1,1.2,-1.9,2.6,-2.5,4.3c-0.7,1.6,-1.1,3.3,-1.3,5.1Zm-25,3.7c0,2.1,0.3,4.1,0.8,5.9c0.6,1.9,1.4,3.5,2.4,4.8c1.1,1.4,2.4,2.5,4.1,3.3c1.6,0.8,3.5,1.2,5.6,1.2c2.9,0,5.4,-0.7,7.5,-2.3c2.1,-1.5,3.4,-3.7,4.1,-6.5l5,0c-0.6,1.8,-1.3,3.5,-2.2,5.1c-0.8,1.5,-2,2.9,-3.3,4.1c-1.3,1.1,-2.9,2,-4.7,2.7c-1.9,0.6,-4,0.9,-6.4,0.9c-3.1,0,-5.7,-0.5,-7.9,-1.5c-2.2,-1.1,-4.1,-2.5,-5.5,-4.3c-1.4,-1.8,-2.5,-3.9,-3.2,-6.4c-0.7,-2.4,-1,-5,-1,-7.8c0,-2.9,0.4,-5.5,1.2,-8c0.8,-2.4,2,-4.6,3.5,-6.4c1.5,-1.9,3.3,-3.3,5.5,-4.4c2.2,-1.1,4.6,-1.6,7.4,-1.6c5.3,0,9.4,1.8,12.4,5.4c3.1,3.7,4.5,8.9,4.5,15.8Z" class="g6_1" />
<path d="M753.3,342.2l-4.5,0l0,-38.4l4.5,0l0,5.4c1.8,-1.9,3.6,-3.4,5.5,-4.6c1.9,-1.2,4.2,-1.8,6.9,-1.8c2.3,0,4.5,0.4,6.5,1.2c2.1,0.8,3.8,2.2,5.2,4.3c0.9,1.4,1.4,2.8,1.6,4.2c0.2,1.5,0.3,3,0.3,4.6l0,25.1l-4.5,0l0,-25c0,-3.5,-0.7,-6.1,-2.3,-7.8c-1.5,-1.7,-4,-2.6,-7.6,-2.6c-1.4,0,-2.6,0.2,-3.8,0.6c-1.1,0.4,-2.1,1,-3,1.7c-1,0.7,-1.7,1.5,-2.4,2.4c-0.6,0.9,-1.1,1.8,-1.4,2.8c-0.5,1.2,-0.8,2.4,-0.9,3.5c-0.1,1.2,-0.1,2.4,-0.1,3.7Z" class="g6_1" />
<path d="M789.7,352.6c0.6,0,1.2,0.1,1.8,0.2c0.6,0.1,1.3,0.2,1.9,0.2c1.3,0,2.3,-0.4,3.1,-1.2c0.7,-0.8,1.4,-1.7,1.9,-2.8c0.5,-1.1,1,-2.3,1.3,-3.5c0.4,-1.2,0.8,-2.2,1.2,-3.1L786,303.8l5,0l12.3,33l12.3,-33l4.8,0l-14.3,37.9c-0.9,2.4,-1.8,4.6,-2.6,6.5c-0.8,1.9,-1.7,3.6,-2.6,4.9c-0.9,1.4,-1.9,2.4,-3,3.1c-1.1,0.7,-2.4,1.1,-4,1.1c-0.8,0,-1.5,-0.1,-2.2,-0.2c-0.7,-0.1,-1.4,-0.2,-2,-0.3Z" class="g6_1" />
<path d="M956.1,322.1c-2.4,-1.1,-3.9,-5.6,-5.6,-7.1c-1.7,-1.4,-3.3,-5.6,-3.8,-9.8c-0.6,-4.1,-5,-6.7,-7.6,-9.9c-2.7,-3.2,-1.9,-4.5,-1.7,-10.1c0.2,-5.5,-0.9,-5.2,-3.2,-7.9c-3.6,-4.1,-5.1,-7.4,-2.7,-11.6c1.6,-2.6,-1.9,-2.2,0.9,-6c1.7,-2.4,1.8,-3.5,2,-5.6c0.4,-2.7,0.3,-5.4,1.4,-8.3c0.5,-1.4,1.3,-4.4,0.9,-5.9c-0.5,-2,-0.3,-3,-1.6,-5c-2.3,-3.5,-5.4,-7.5,-8.1,-7.3c-2.8,0.3,-6.1,-2.7,-10.7,-3.3c-4.3,-0.6,-2.1,-5.4,3.7,-14.5c5.8,-9.1,8.6,-11.1,14.4,-11.9c3.9,-0.6,9.1,-5.1,10.8,-7.2c2.5,-3.4,1.8,-5.6,1.1,-10.1c-1.8,-11.5,0.5,-7.5,-0.3,-11.4c-0.8,-4.1,-5,-4.1,-3.2,-9.7c1.3,-3.8,0,-3.4,-1.2,-5.4c-1.6,-2.8,-3.4,-5.6,-7.1,-16.1c-3.8,-10.5,-8.2,-28.7,-8.8,-31.8c-0.2,-0.9,-0.6,-3.9,-0.9,-5.7c-0.4,-2.3,-0.9,-3.6,0,-6.1c1,-2.8,-0.4,-4.9,-0.8,-6.7c-0.8,-3.5,-1.9,-4.2,-3.8,-6.2c-0.9,-1,-1.8,-3.2,-3.6,-3.2c-5.7,-0.2,-6.4,-5.3,-9.5,-4.5c-3.2,0.8,-2.3,-2.2,-4.6,-4.3c-2.4,-2.2,-6.8,-3.6,-7.8,-0.6c-0.7,1.9,-4.7,2.6,-31.3,4.4c-26.7,1.8,-35.2,-0.5,-56.2,-3C788.8,68.2,766.3,63.7,761,62.6l-0.1,0.1c-0.8,0.7,-2.5,2.1,-2.9,2.3c-0.5,0.3,-2.8,1.6,-3.2,1.7c-0.4,0.2,-3.5,1.5,-4.2,1.7c-0.7,0.1,-5.9,1.5,-7,1.5c-1,0.1,-3,0.3,-3.6,0.3c-0.6,-0.1,-1.7,-0.1,-2.3,0c-0.6,0.1,-2.8,0.3,-3.3,0.2l-1.1,-0.1c-0.4,0,-0.8,0.1,-0.8,0.1c0,0,-1,0.1,-1.4,-0.4c-0.2,-0.3,-0.7,-0.2,-1.2,0c-0.4,0,-0.8,0.1,-1.2,0.1c-1,-0.1,-2.5,-0.4,-3,-0.7c-0.5,-0.2,-1.5,-0.7,-1.8,-0.9c-0.4,-0.2,-0.7,-0.3,-0.7,-0.3c0,0,-0.1,-0.1,-0.3,-0.1c-0.2,-0.1,-2,-0.3,-2.4,-0.6c-0.4,-0.3,-0.7,-0.6,-0.6,-0.9c0.1,-0.2,0,-0.3,-0.1,-0.3L719.6,66c0.2,-0.1,0.1,-0.2,-0.1,-0.3c-0.3,-0.2,-0.9,-0.5,-1.2,-0.5c-0.2,0,-0.9,0.1,-1.2,-0.1c-0.3,-0.3,-1.7,-1.3,-2,-1.8c-0.4,-0.4,-0.9,-1.3,-0.9,-2c0.1,-0.7,0.4,-1.3,0.3,-1.8c-0.2,-0.5,-0.3,-1.3,-0.4,-1.6c-0.2,-0.3,-0.3,-0.8,-0.1,-0.8c0.1,0,0.2,0,0.2,-0.3c0,-0.4,0,-0.7,-0.4,-0.8c-0.3,-0.1,-0.7,-0.2,-0.9,-0.4c-0.2,-0.1,-0.6,-0.4,-0.6,-0.4l1,0.3l0.6,0.1c0.2,-0.4,0.5,0,0.5,-0.4c0,-0.3,-0.3,-1.1,-0.4,-1.5c-0.1,-0.3,-0.2,-0.6,-0.2,-0.6c0,0,-0.2,-0.5,-0.4,-0.9c-0.3,-0.3,-1,-2,-1,-2.3c0.1,-0.4,0.1,-1.1,0.1,-1.1c0,0,-0.9,0.3,-1.3,0.2c-0.4,-0.1,-0.6,-0.2,-0.5,-0.5c0.2,-0.3,0.5,-0.8,0.2,-1.1c-0.2,-0.3,-0.3,-0.7,-0.2,-0.9l0.1,-1.7c0.2,-0.2,0.3,-0.4,-0.1,-0.6c-0.4,-0.2,-0.9,-0.6,-1.1,-1.1c-0.3,-0.4,-0.5,-0.6,-0.8,-0.7C708.6,42.3,708,42.1,708,41.7c-0.1,-0.3,0,-1.4,0.1,-1.6c0.2,-0.2,0.5,-0.6,0.5,-0.8c0,-0.2,0.3,-0.7,0.3,-0.9L709,37.7c0,0,0.4,0.2,1,0.6c0.6,0.4,2.3,1.5,2.6,1.8c0.2,0.2,0.6,0.6,0.7,0.7l0.7,0.1c0.1,0.1,1.8,1.4,2,1.5c0.2,0.1,1.3,0.7,1.6,0.9c0.2,0.2,0.7,0.5,0.9,0.8c0.1,0.3,0.7,0.8,1,0.8c0.3,0.1,0.7,0.4,0.9,0.5c0.2,0.2,0.7,0.7,1.2,1.6c0.4,0.8,1.2,1.8,1.4,2.3c0.2,0.4,0.5,0.7,0.5,1c0.1,0.3,0.2,0.8,0.5,0.8c0.3,0.1,0.3,0.2,0.4,0.4c0.2,0.2,0.4,1,0.7,0.7c0.2,-0.2,1.3,-0.8,0.3,-2.5c-1,-1.7,-3.8,-4.1,-4.1,-4.3c-0.3,-0.2,-1.9,-1.6,-2.4,-2c-0.5,-0.3,-3.8,-2.6,-4.2,-2.9c-0.4,-0.2,-2.9,-1.8,-3.3,-2c-0.3,-0.3,-1.3,-1,-1.6,-1.2c-0.4,-0.2,-0.9,-0.7,-1.4,-0.9c-0.5,-0.2,-0.8,-0.5,-1.1,-0.8c-0.4,-0.2,-1,-0.7,-1.2,-1c-0.1,-0.2,-0.6,-0.8,-1.3,-0.8c-0.7,-0.1,-1.4,-0.2,-1.7,-0.1c-0.3,0,-2.4,0,-3.1,0c-0.8,0,-5.4,-0.2,-6.1,-0.2c-0.7,-0.1,-3.4,0.1,-4,0.2c-0.7,0.1,-3.2,0.4,-3.8,0.6c-0.5,0.1,-2.3,0.7,-2.8,0.7c-0.5,0.1,-1.3,0.1,-1.8,0.3c-0.5,0.2,-4.1,1.3,-4.8,1.4c-0.8,0.2,-3.7,0.5,-4.5,0.7c-0.8,0.3,-3,0.6,-3.4,0.7c-0.4,0,-1.8,0.1,-2.4,0.1c-0.5,-0.1,-2.1,0.2,-2.7,0.3c-0.6,0.2,-1.6,0.6,-2.2,0.6c-0.6,0,-2.2,0.4,-2.6,0.7c-0.4,0.3,-1.4,0.8,-2.1,1.1c-0.6,0.3,-1.5,0.8,-2.1,1c-0.6,0.2,-3,1.3,-3.4,1.5c-0.3,0.1,-1.7,1.4,-2.2,1.9c-0.4,0.5,-1.7,1.6,-3,2.3c-1.4,0.7,-3.6,1.1,-3.9,1.1L641,49c-0.7,0.2,-1.7,0.8,-3.2,0.7c-1.4,-0.2,-3.5,-0.1,-4,0c-0.5,0.1,-3.1,0.6,-3.7,0.8c0,0,-2.5,1,-3.6,2.1c-1.2,1,-2.7,2.5,-3.1,3.2c-0.4,0.8,-0.4,1.3,-1.1,1.8c-0.7,0.4,-1.4,1.4,-1.7,1.8c-0.2,0.4,-0.9,1.6,-2,2.5c-1.1,0.9,-2.4,2.7,-4.1,3.9c-1.6,1.2,-2.7,2.1,-3.9,2.6c-1.2,0.5,-3.9,1.6,-5.4,1.7c-1.5,0.2,-4.9,0.2,-5.9,0.4c-1,0.3,-2.8,0.7,-3.9,1.2c-1.1,0.4,-4.1,1.2,-4.7,1.3c-0.5,0.2,-1.6,0.2,-2.2,0.3c-0.5,0.1,-1,0.4,-1.2,0.4c-0.3,0,-1.3,-0.2,-1.7,0.1c-0.3,0.2,-1.6,1.1,-2.9,1.1c-1.2,-0.1,-1.8,-0.5,-2.4,-0.3c-0.7,0.3,-1.8,0.4,-2.6,0.4c-0.7,0.1,-2.7,0.3,-3.1,0.5c-0.4,0.1,-2.9,0.9,-4,1.2c0,0,-2.2,0.6,-2.9,0.9c-0.7,0.4,-1.5,0.6,-1.8,0.6c-0.4,0,-1.4,0.2,-2,0.4c-0.6,0.2,-2.2,0.7,-2.8,0.9c-0.5,0.2,-2.3,0.8,-2.7,1c-0.5,0.2,-1.9,0.6,-3.5,0.7c0,0,-1.7,0.3,-2.5,0.5c-0.8,0.2,-4.2,1.5,-4.2,1.5l-0.4,0.2c-0.2,0.1,-1.7,0.7,-2,0.6c-0.3,0,-1.9,0.3,-2.1,0.4c-0.3,0.2,-1.9,0.9,-2.3,1c-0.3,0.1,-1.5,0.4,-1.7,0.5c-0.2,0.2,-0.9,0.8,-1.2,1c-0.3,0.2,-1.8,1.4,-2.2,1.6c-0.5,0.1,-2.2,0.6,-3.1,0.5c-0.9,-0.1,-1.5,-0.2,-1.7,-0.4L531,88.3c0,0,-0.8,-0.4,-2.1,-0.7l-1,-0.2c-1.8,9.2,2.1,6.2,1.3,12.1c-0.9,6,0,5.5,-0.1,7.6c-0.1,2.1,-0.5,2.5,-0.4,5.1c0.2,3.2,0.3,5,0.9,6.4c0.5,1,1.1,3.5,1.2,6c0.1,2.6,0.9,5,1.9,8c1.1,3.1,-0.5,5.9,-3.1,6.9c-2.6,1.1,0,3.5,-3.4,9.6c-1.7,2.8,-5.1,4,-7.2,5.3c-2.2,1.3,-0.3,5.2,-2,7.7c-1.7,2.4,-2.1,3.4,0.4,4.7c2.4,1.2,3.6,3,5.4,4.9c2,2,1.5,1.8,3.2,4.8c1.7,3.1,5.6,5.6,7.6,7.8c2,2.1,1.8,2.9,1.4,7.7c-0.2,2,0,1.9,-2.7,3.8c-1.7,1.4,-1.5,4.2,0.6,9c0.6,1.3,1.3,1.9,4.3,4.9c2.3,2.4,0.2,2.8,-0.4,5.7c-0.5,2.9,-1.6,2,-1.7,4.6c-0.1,2.3,2.9,2.4,2.3,4.9c-0.5,2.5,-1.4,4.9,-1.7,7.2c-0.3,2.2,-1.5,4.2,-4.1,5.9c-2.6,1.8,-1.2,3.9,-0.1,5.3c1.1,1.4,0.7,4,2.4,5.9c1.8,2,2.3,3.8,2.5,5.6c0.1,1.9,-1.5,2,-2.7,3.3c-1.1,1.3,-1.4,5,0.7,5.3c2,0.3,4.3,3.1,6.8,4.2c2.5,1,3.2,4.9,3,8.3c-0.2,2.8,2.5,6.6,1.5,8.8c-1,2.3,-2.4,9.1,-3.6,12.1c-1.1,2.5,-3.7,5.7,-4.4,9c-0.5,3,-2.5,1.8,-3.7,4.5c-1.2,2.7,3.1,1.4,6.7,2.4c3.6,1.1,1,-2.6,3.3,-5.7c1.9,-2.7,-2.6,-3.5,-1.7,-4.7c1,-1.3,3.1,-2.1,4.9,0.2c0.8,1.2,1.3,3.1,2.1,1.5c0.4,-0.8,1.9,-1.1,4.2,0.1c2.1,1,1.9,3.1,1.2,6.2c-1,4.8,3.3,4.4,2.9,7c-0.6,3.8,1.5,4.2,3.2,2.9c1.6,-1.3,5.7,1.1,8,2.1c2.2,1,6.1,3.3,7.7,2.2c1.7,-1.1,3,-0.4,3.6,2.6c0.6,3,2.7,2.1,4.5,1.5c1.9,-0.6,2.7,2.4,2.6,5.4c-0.1,3,4,1.1,4.5,-1.7c0.1,-0.1,1.6,-1,2.5,-0.2c0.8,0.7,1.3,1.7,2.1,1.8c2.4,0.1,0.6,-3.1,3.6,-3c2.9,0.1,3.3,2,5.2,4.6c2.9,4.1,0.8,3.6,-0.4,4.8c-2,2.1,-2.5,4.1,-5,4.9c-2.6,0.9,-4.3,1,-4.7,2.8c-0.7,2.9,1.2,3.5,4,3.9c5.6,0.6,0.8,3.5,5.4,4.8c4.5,1.3,1.4,5.3,4.1,6.5c2.7,1.3,0.4,7.6,5.4,10.6c3.2,1.9,4.6,-1.5,6.8,-4.4c2.2,-2.9,3.8,-1.5,4.9,-2.3c1,-0.8,2.2,-0.5,3.1,-0.3c1.4,0.3,2.2,0.6,1.5,-1.8c-0.4,-1.1,0.8,-3.2,0.1,-4.3c-0.6,-1.2,-2.9,-2.1,-3.1,-3.9c-0.1,-1.9,-3.2,-2.9,-2.2,-4.7c1,-1.8,4.2,-1.5,6.7,1.5c1.8,2.1,6.9,0.3,8.2,2.2c1.3,1.9,3.2,3.6,5.5,3.2c2.3,-0.4,1.4,1,1.1,2.8c-0.3,1.8,1.4,1,2.6,1.5c1.1,0.5,4.7,0.1,7.2,0.2c2.5,0.1,3.9,0.9,5.1,-1.6c1.3,-2.5,1.1,-1.5,2.2,-0.5c0.3,0.2,1.7,0.9,1.2,2.4c-0.5,1.6,-0.4,2.6,-0.9,3.8c-0.5,1.1,-1.8,1.5,-3.6,1.5c-1.9,-0.1,-3.8,1.7,-2.9,3.1c0.9,1.4,2.8,2.5,4.9,3.3c2.4,0.8,-0.2,5.5,2.3,8.1c2.4,2.6,5.6,1.9,6.3,0.6c0.7,-1.4,4.2,-1.2,4.2,-1.2c5.4,1.1,0.7,-1.4,0.4,-3.5c-0.1,-1,2.7,-0.4,3.7,0.8c0.9,1.2,-0.4,3.2,1.1,4.6c1.5,1.5,4.2,1.9,5.7,2.4c1.4,0.6,6.1,1.7,7.9,2c2.1,0.5,5.6,2.3,7.3,2.9c4,1.4,-2.3,5.3,0.6,11c1.2,2.2,3.8,4.2,5.9,4.7c2,0.4,3.1,2.6,3.3,5.4c0.3,2.7,3,3.9,1.9,5.9c-1.1,2,-0.7,2.7,2.8,2.2c3.5,-0.6,2.6,1.2,2.4,5.7c-0.1,4.4,4.2,0.6,4.2,0.6c0,0,2.2,1.4,4.9,1.1c1.8,-0.3,2.2,-1.2,3.2,-2.8c1.7,-2.8,-0.4,-6.2,2.7,-6.1c3.1,0.1,3.7,-3.8,7.1,-4.4c2.6,-0.4,4.6,1,4.6,3.4c-0.1,2.4,4.1,6.9,5.2,9.2c0.4,0.9,1.1,4,3.9,1.7c2.8,-2.3,2.6,6.2,2.5,8.6c-0.1,2.4,-0.4,4.3,-1.2,5.3c-1.5,1.6,3.6,3.8,6.6,1c1.8,-1.7,3.6,-0.8,5.6,1c2,1.8,2.9,2.2,3.3,-2c0.2,-2,2.3,-4.8,3.3,-5.6c1.2,-1,1.6,-2.2,4,-2.5c2.4,-0.3,4.1,-0.2,4.2,-2.3c0.1,-2,1.4,-1.7,3.2,-1.6c1.7,0.1,2.1,-0.9,6.2,0.2c2.3,0.7,3.7,0.8,4.1,-0.5c0.2,-0.7,0.8,-0.5,1.6,-0.2c1,0.2,2.1,0.4,3.3,-0.3c2.2,-1.6,3,2.5,3.9,4.2c1,1.8,2.5,0.1,5.5,3c1.4,1.3,3.7,1,4.7,0c1.1,-1.1,0.9,-3,1.8,-3c1.7,0.1,2.9,-0.8,1.9,-2.6c-0.9,-1.7,0.5,-3.5,2.9,-2.4c2.4,1.1,2.9,1.6,3.7,0.9c2.2,-1.6,2.8,-3.4,4.8,-2.3c2.1,1.1,6.6,2.7,8,2.1c1.4,-0.7,6.3,-2.2,7.6,-0.1c0.6,0.9,1.3,0.8,2.1,0.6c0.9,-0.2,2,-0.4,3.1,1.5c2,3.5,1.9,1.9,2.3,0.9c0.4,-1,6.5,0.6,7.4,3.7c1,3.2,3.4,2.6,3.7,5.3c0.2,2.8,3.2,5.7,6.3,6.5c3.1,0.8,5.4,3.2,8.2,2.6c1.3,-0.2,1.9,0.7,3.1,1.6c1.1,1,2.9,2,6.5,1.7c2,-0.2,3.4,0.9,4.6,1.9c1.2,1.1,2.2,2.1,3.5,2c2.4,-0.2,2.7,-0.2,5.1,1.6c2.3,1.8,2.7,0.4,2.1,-1.7c-0.6,-2.1,1.9,-4.1,0.2,-4.9c-1.7,-0.8,-2.8,-3.3,-5.4,-4.1c-2.4,-0.7,-1.3,-1.9,-1.2,-4.3c0.1,-2.4,-0.2,-6.5,-0.4,-9.3c-0.2,-2.8,0.1,-5.3,-3.1,-10c-1.5,-2.2,-0.5,-6,1.3,-8.7c1.9,-2.7,5.7,-8.5,10.4,-14.3c4.7,-5.6,16.3,-24.9,20.2,-27.9c3.9,-2.9,13,-9.8,14.5,-14.5c1.6,-4.8,9.6,-4.4,13.4,-4.6c3.8,-0.2,4.3,-7.9,4.9,-14.5c0.6,-6.5,-2.6,-6.6,-2.9,-8c-0.2,-1.4,-3.2,-4.6,-3.2,-4.6c-0.2,-3.8,5.9,-2.2,7.4,-4.2c1.4,-2,-1,-1.8,-3.4,-2.9" class="g7_1" />

</svg>
